<?xml version="1.0" encoding="UTF-8"?>
<svg id="Layer_2" data-name="Layer 2" xmlns="http://www.w3.org/2000/svg" viewBox="0 0 604.07 159.33">
  <defs>
    <style>
      .cls-1 {
        fill: #a173ea;
      }
    </style>
  </defs>
  <g id="Layer_1-2" data-name="Layer 1">
    <g>
      <g>
        <rect class="cls-1" x="2.49" y="75.94" width="599.1" height="6.88"/>
        <path class="cls-1" d="M604.07,85.3H0v-11.85h604.07v11.85ZM4.96,80.34h594.14v-1.92H4.96v1.92Z"/>
      </g>
      <g>
        <g>
          <rect class="cls-1" x="189.27" y="3.84" width="6.9" height="151.09"/>
          <path class="cls-1" d="M198.64,157.41h-11.86V1.35h11.86v156.06ZM191.74,152.45h1.94V6.32h-1.94v146.13Z"/>
        </g>
        <g>
          <polygon class="cls-1" points="408.28 156.01 336.31 9.42 335.25 9.41 265.71 154.75 259.49 151.78 330.94 2.49 340.62 2.58 414.46 152.97 408.28 156.01"/>
          <path class="cls-1" d="M407.13,159.33l-1.09-2.22L335.81,14.01l-68.94,144.05-10.68-5.11,1.09-2.24L329.39,0l12.78.11.68,1.37,74.93,152.63-10.64,5.22ZM333.69,6.92l4.17.04.68,1.37,70.88,144.36,1.73-.85L339.06,5.04l-6.57-.05-69.68,145.62,1.73.83L333.69,6.92Z"/>
        </g>
      </g>
    </g>
  </g>
</svg>