<?xml version="1.0" encoding="UTF-8"?>
<svg id="Layer_2" data-name="Layer 2" xmlns="http://www.w3.org/2000/svg" viewBox="0 0 622.59 50.19">
  <defs>
    <style>
      .cls-1 {
        fill: #fff;
      }
    </style>
  </defs>
  <g id="Layer_1-2" data-name="Layer 1">
    <g>
      <path class="cls-1" d="M8.91,48.56v.45H0v-.45h.37c0-.1.02-.17.07-.22.05-.05.07-.1.07-.15.2-.69.32-1.34.37-1.93.25-1.88.37-4.4.37-7.57V11.43c0-3.37-.12-5.99-.37-7.87-.05-.6-.17-1.16-.37-1.71l-.15-.3h-.37v-.45h8.91v.45h-.37l-.15.3c-.2.55-.32,1.11-.37,1.71-.25,1.88-.37,4.5-.37,7.87v27.25c0,3.17.12,5.69.37,7.57.05.74.17,1.39.37,1.93,0,.05.05.17.15.37h.37Z"/>
      <path class="cls-1" d="M23.69,1.56v-.45h8.84v.45h-.37l-.15.3c-.49,1.19-.74,4.38-.74,9.58v36.01h9.28c7.47,0,11.41-.67,11.81-2.01l1.04.08c0,.25-.04.61-.11,1.08-.07.47-.16.94-.26,1.41-.1.47-.15.75-.15.85v.15h-29.18v-.45h.3l.15-.3c.2-.45.32-.99.37-1.63.25-1.98.37-4.63.37-7.94V11.43c0-3.31-.12-5.96-.37-7.94-.05-.64-.17-1.19-.37-1.63l-.15-.3h-.3Z"/>
      <path class="cls-1" d="M86.13,49.38c-7.42,0-13.32-2.25-17.67-6.76-4.31-4.55-6.46-10.42-6.46-17.6s2.15-13.02,6.46-17.52c4.36-4.5,10.25-6.76,17.67-6.76s13.22,2.25,17.52,6.76c4.36,4.51,6.53,10.35,6.53,17.52s-2.18,13.09-6.53,17.6c-4.31,4.51-10.15,6.76-17.52,6.76ZM103.28,25.02c0-3.71-.57-7.28-1.71-10.69-1.14-3.37-3.02-6.19-5.64-8.46-2.67-2.38-5.94-3.56-9.8-3.56s-7.15,1.19-9.88,3.56c-4.9,4.31-7.35,10.69-7.35,19.16,0,2.77.33,5.46,1,8.06.67,2.6,1.66,5.02,2.97,7.28,1.31,2.25,3.11,4.06,5.38,5.42,2.28,1.36,4.9,2.04,7.87,2.04s5.59-.68,7.87-2.04c2.28-1.36,4.07-3.17,5.38-5.42,1.31-2.25,2.29-4.68,2.93-7.28.64-2.6.97-5.28.97-8.06Z"/>
      <path class="cls-1" d="M120.43,49v-.45l.37-.07c.59-.94.89-4.21.89-9.8V11.43c0-3.31-.12-5.91-.37-7.8-.15-1.09-.32-1.78-.52-2.08h-.37v-.45h6.68l27.32,37.94V11.43c0-3.31-.12-5.91-.37-7.8-.15-.99-.25-1.53-.3-1.63l-.22-.45h-.3v-.45h5.12v.45l-.37.08s-.07.05-.07.15-.03.17-.07.22c-.2.64-.32,1.19-.37,1.63-.2,1.53-.3,4.13-.3,7.8v38.76h-2.23l-.07-.15L124.3,7.72v30.96c0,2.82.12,5.42.37,7.8.15.99.25,1.53.3,1.63l.22.44h.37v.45h-5.12Z"/>
      <path class="cls-1" d="M171.37,39.87L185.18,0h2.23l16.04,41.21c1.34,3.46,2.42,5.74,3.27,6.83l.22.3.22.22.3.08v.37h-9.58v-.37l.45-.15s.07-.05.07-.15v-.37c0-.84-.25-2.08-.74-3.71-.49-1.63-1.11-3.49-1.86-5.57-.05-.15-.37-.97-.97-2.45-.49-1.19-.87-2.2-1.11-3.04h-17.45c-1.29,3.96-2.2,7.05-2.75,9.28-.79,2.72-1.19,4.58-1.19,5.57v.3c0,.1.02.18.07.22l.37.08v.37h-5.72v-.37l.3-.08c.1-.1.15-.17.15-.22l.15-.15.15-.07c.99-1.34,2.18-4.08,3.56-8.24ZM193.13,31.63l-8.54-22.87-7.8,22.87h16.33Z"/>
      <path class="cls-1" d="M239.09,39.87L252.9,0h2.23l16.04,41.21c1.34,3.46,2.42,5.74,3.27,6.83l.22.3.22.22.3.08v.37h-9.58v-.37l.45-.15s.07-.05.07-.15v-.37c0-.84-.25-2.08-.74-3.71-.49-1.63-1.11-3.49-1.86-5.57-.05-.15-.37-.97-.97-2.45-.49-1.19-.87-2.2-1.11-3.04h-17.45c-1.29,3.96-2.2,7.05-2.75,9.28-.79,2.72-1.19,4.58-1.19,5.57v.3c0,.1.02.18.07.22l.37.08v.37h-5.72v-.37l.3-.08c.1-.1.15-.17.15-.22l.15-.15.15-.07c.99-1.34,2.18-4.08,3.56-8.24ZM260.84,31.63l-8.54-22.87-7.8,22.87h16.33Z"/>
      <path class="cls-1" d="M283.71,1.56v-.45h16.71c4.21,0,7.82.99,10.84,2.97,3.07,2.03,4.6,5,4.6,8.91,0,2.03-.59,4.08-1.78,6.16-1.59,2.72-4.6,4.65-9.06,5.79,3.02.45,5.59,1.16,7.72,2.15,2.13.99,3.65,2.1,4.57,3.34.92,1.24,1.56,2.34,1.93,3.3.37.97.56,1.92.56,2.86,0,2.92-.97,5.37-2.9,7.35-3.37,3.37-8.24,5.05-14.63,5.05h-18.56v-.45h.3c.1-.1.15-.17.15-.22.54-1.34.82-4.55.82-9.65V11.43c0-5.1-.27-8.31-.82-9.65,0-.05-.05-.12-.15-.22h-.3ZM300.42,2.82h-9.13v21.76h7.2c3.32,0,5.99-1.09,8.02-3.27,2.03-2.18,3.04-4.95,3.04-8.31,0-2.92-.83-5.35-2.49-7.28-1.66-1.93-3.87-2.9-6.65-2.9ZM297.6,25.99h-6.31v21.31h10.32c3.37,0,6.14-.98,8.32-2.93,2.18-1.95,3.27-4.54,3.27-7.76,0-2.43-.87-4.51-2.6-6.24-3.07-2.92-7.4-4.38-12.99-4.38Z"/>
      <path class="cls-1" d="M330.27,1.56v-.45h16.71c4.4,0,8.12,1.14,11.14,3.42,3.07,2.23,4.6,5.49,4.6,9.8,0,2.08-.64,4.31-1.93,6.68-.74,1.39-1.97,2.64-3.68,3.75-1.71,1.11-3.75,1.94-6.13,2.49l13.29,15.07,1.56,1.78.3.3c.15.25.35.51.59.78.25.27.47.51.67.71,1.24,1.14,2.45,1.71,3.64,1.71h.59v1.41h-2.75c-2.67,0-4.75-.27-6.24-.82-1.44-.54-2.97-1.81-4.6-3.79l-2.82-3.12-11.81-13.44h-5.57v10.84c0,3.56.1,6.11.3,7.65.05.69.17,1.26.37,1.71,0,.2.07.37.22.52h.3v.45h-8.76v-.45h.3c.15-.15.22-.32.22-.52.49-1.19.74-4.31.74-9.36V11.43c0-5.05-.25-8.17-.74-9.36,0-.2-.03-.32-.07-.37l-.15-.15h-.3ZM346.97,2.82h-9.13v23.32h7.2c3.27,0,5.93-1.1,7.98-3.3,2.05-2.2,3.08-5.04,3.08-8.5,0-3.07-.79-5.76-2.38-8.09-1.53-2.28-3.79-3.42-6.76-3.42Z"/>
      <path class="cls-1" d="M380.46,39.87L394.27,0h2.23l16.04,41.21c1.34,3.46,2.42,5.74,3.27,6.83l.22.3.22.22.3.08v.37h-9.58v-.37l.45-.15s.07-.05.07-.15v-.37c0-.84-.25-2.08-.74-3.71-.49-1.63-1.11-3.49-1.86-5.57-.05-.15-.37-.97-.97-2.45-.49-1.19-.87-2.2-1.11-3.04h-17.45c-1.29,3.96-2.2,7.05-2.75,9.28-.79,2.72-1.19,4.58-1.19,5.57v.3c0,.1.02.18.07.22l.37.08v.37h-5.72v-.37l.3-.08c.1-.1.15-.17.15-.22l.15-.15.15-.07c.99-1.34,2.18-4.08,3.56-8.24ZM402.22,31.63l-8.54-22.87-7.8,22.87h16.33Z"/>
      <path class="cls-1" d="M474.39,48.56h.37v.45h-8.76v-.45h.3c.4-.54.59-2.62.59-6.23,0-1.88-.03-3.09-.07-3.64l-1.04-30.44-16.56,41.14h-2.23l-17.23-38.83-1.04,27.1c-.05.45-.07,1.48-.07,3.12,0,2.82.15,4.95.45,6.39.1.54.25.97.45,1.26.05.05.07.1.07.15h.52v.45h-5.72v-.45h.37s.07-.12.07-.22c.05-.05.07-.1.07-.15.2-.45.35-1.09.45-1.93.25-1.24.47-3.76.67-7.57.74-19.4,1.11-29.23,1.11-29.48v-1.48c0-2.18-.07-3.81-.22-4.9,0-.24-.07-.59-.22-1.04l-.07-.07-.07-.15h-.3v-.45h5.57l18.04,40.39,15.67-40.39h7.05v.45h-.37l-.15.3c-.3.84-.45,2.6-.45,5.27v1.49l1.41,30.07c.2,5.4.64,8.69,1.34,9.88Z"/>
      <path class="cls-1" d="M501.93.74c3.02,0,7.28,1.09,12.77,3.27.25.1.42.22.52.37v3.79h-1.04c-.4-.79-1.04-1.56-1.93-2.3-.99-.84-2.77-1.68-5.35-2.52-2.18-.69-3.94-1.04-5.27-1.04-2.92,0-5.32.94-7.2,2.82-1.88,1.88-2.82,4.31-2.82,7.28,0,1.93,1.14,3.84,3.42,5.72,2.28,1.88,5.5,3.47,9.65,4.75,4.46,1.44,7.77,3.38,9.95,5.83,2.18,2.45,3.27,4.99,3.27,7.61,0,4.16-1.46,7.4-4.38,9.73-2.87,2.23-6.44,3.34-10.69,3.34-5.05,0-10.32-1.09-15.82-3.27-.35-.15-.52-.27-.52-.37-.1-.1-.12-.32-.07-.67l.07-.6v-2.52h1.04c.69,1.44,1.68,2.45,2.97,3.05,3.17,1.63,6.83,2.55,10.99,2.75l.3.07h.22c3.27,0,5.93-.8,7.98-2.41,2.05-1.61,3.08-3.9,3.08-6.87,0-2.13-1.14-4.2-3.42-6.2-2.28-2-5.57-3.7-9.88-5.09-4.31-1.39-7.52-3.23-9.65-5.53-2.13-2.3-3.19-4.69-3.19-7.17,0-4.36,1.41-7.75,4.23-10.17,2.77-2.43,6.36-3.64,10.77-3.64Z"/>
      <path class="cls-1" d="M550.35,49.38c-7.42,0-13.32-2.25-17.67-6.76-4.31-4.55-6.46-10.42-6.46-17.6s2.15-13.02,6.46-17.52c4.36-4.5,10.25-6.76,17.67-6.76s13.22,2.25,17.52,6.76c4.36,4.51,6.53,10.35,6.53,17.52s-2.18,13.09-6.53,17.6c-4.31,4.51-10.15,6.76-17.52,6.76ZM567.5,25.02c0-3.71-.57-7.28-1.71-10.69-1.14-3.37-3.02-6.19-5.64-8.46-2.67-2.38-5.94-3.56-9.8-3.56s-7.15,1.19-9.88,3.56c-4.9,4.31-7.35,10.69-7.35,19.16,0,2.77.33,5.46,1,8.06.67,2.6,1.66,5.02,2.97,7.28,1.31,2.25,3.11,4.06,5.38,5.42,2.28,1.36,4.9,2.04,7.87,2.04s5.59-.68,7.87-2.04c2.28-1.36,4.07-3.17,5.38-5.42,1.31-2.25,2.29-4.68,2.93-7.28.64-2.6.97-5.28.97-8.06Z"/>
      <path class="cls-1" d="M584.65,49v-.45l.37-.07c.59-.94.89-4.21.89-9.8V11.43c0-3.31-.12-5.91-.37-7.8-.15-1.09-.32-1.78-.52-2.08h-.37v-.45h6.68l27.32,37.94V11.43c0-3.31-.12-5.91-.37-7.8-.15-.99-.25-1.53-.3-1.63l-.22-.45h-.3v-.45h5.12v.45l-.37.08s-.07.05-.07.15-.03.17-.07.22c-.2.64-.32,1.19-.37,1.63-.2,1.53-.3,4.13-.3,7.8v38.76h-2.23l-.07-.15-30.59-42.32v30.96c0,2.82.12,5.42.37,7.8.15.99.25,1.53.3,1.63l.22.44h.37v.45h-5.12Z"/>
    </g>
  </g>
</svg>