<?xml version="1.0" encoding="UTF-8"?>
<svg id="Layer_2" data-name="Layer 2" xmlns="http://www.w3.org/2000/svg" viewBox="0 0 650.66 39.08">
  <defs>
    <style>
      .cls-1 {
        fill: #fcf7f4;
      }
    </style>
  </defs>
  <g id="Layer_1-2" data-name="Layer 1">
    <g>
      <g>
        <path class="cls-1" d="M186.2,37.33v.34h-6.74v-.34h.28c0-.07.02-.13.06-.17.04-.04.06-.07.06-.11.15-.52.24-1.01.28-1.46.19-1.42.28-3.33.28-5.73V9.24c0-2.55-.09-4.53-.28-5.96-.04-.45-.13-.88-.28-1.29l-.11-.22h-.28v-.34h6.74v.34h-.28l-.11.22c-.15.41-.24.84-.28,1.29-.19,1.42-.28,3.41-.28,5.96v20.62c0,2.4.09,4.31.28,5.73.04.56.13,1.05.28,1.46,0,.04.04.13.11.28h.28Z"/>
        <path class="cls-1" d="M197.39,1.76v-.34h6.69v.34h-.28l-.11.22c-.37.9-.56,3.32-.56,7.25v27.26h7.02c5.66,0,8.63-.51,8.94-1.52l.79.06c0,.19-.03.46-.08.81-.06.36-.12.71-.2,1.07-.08.36-.11.57-.11.65v.11h-22.09v-.34h.22l.11-.22c.15-.34.24-.75.28-1.24.19-1.5.28-3.5.28-6.01V9.24c0-2.51-.09-4.51-.28-6.01-.04-.49-.13-.9-.28-1.24l-.11-.22h-.22Z"/>
        <path class="cls-1" d="M244.65,37.95c-5.62,0-10.08-1.7-13.37-5.11-3.26-3.45-4.89-7.89-4.89-13.32s1.63-9.85,4.89-13.26c3.3-3.41,7.75-5.11,13.37-5.11s10,1.71,13.26,5.11c3.3,3.41,4.95,7.83,4.95,13.26s-1.65,9.91-4.95,13.32c-3.26,3.41-7.68,5.11-13.26,5.11ZM257.63,19.52c0-2.81-.43-5.51-1.29-8.09-.86-2.55-2.29-4.68-4.27-6.41-2.02-1.8-4.5-2.7-7.42-2.7s-5.41.9-7.47,2.7c-3.71,3.26-5.56,8.09-5.56,14.5,0,2.1.25,4.13.76,6.1.51,1.97,1.25,3.8,2.25,5.51.99,1.71,2.35,3.07,4.07,4.1,1.72,1.03,3.71,1.54,5.96,1.54s4.23-.51,5.96-1.54c1.72-1.03,3.08-2.4,4.07-4.1.99-1.7,1.73-3.54,2.22-5.51.49-1.97.73-4,.73-6.1Z"/>
        <path class="cls-1" d="M270.61,37.67v-.34l.28-.06c.45-.71.67-3.18.67-7.42V9.24c0-2.51-.09-4.48-.28-5.9-.11-.82-.24-1.35-.39-1.57h-.28v-.34h5.06l20.68,28.72V9.24c0-2.51-.09-4.48-.28-5.9-.11-.75-.19-1.16-.22-1.24l-.17-.34h-.22v-.34h3.88v.34l-.28.06s-.06.04-.06.11-.02.13-.06.17c-.15.49-.24.9-.28,1.24-.15,1.16-.22,3.13-.22,5.9v29.33h-1.69l-.06-.11-23.15-32.03v23.43c0,2.14.09,4.1.28,5.9.11.75.19,1.16.22,1.24l.17.34h.28v.34h-3.88Z"/>
        <path class="cls-1" d="M309.16,30.76l10.45-30.18h1.69l12.14,31.19c1.01,2.62,1.84,4.35,2.47,5.17l.17.22.17.17.22.06v.28h-7.25v-.28l.34-.11s.06-.04.06-.11v-.28c0-.64-.19-1.57-.56-2.81-.37-1.24-.84-2.64-1.4-4.22-.04-.11-.28-.73-.73-1.85-.37-.9-.66-1.67-.84-2.3h-13.21c-.97,3-1.67,5.34-2.08,7.02-.6,2.06-.9,3.47-.9,4.21v.22c0,.08.02.13.06.17l.28.06v.28h-4.33v-.28l.22-.06c.07-.07.11-.13.11-.17l.11-.11.11-.06c.75-1.01,1.65-3.09,2.7-6.24ZM325.62,24.52l-6.46-17.31-5.9,17.31h12.36Z"/>
        <path class="cls-1" d="M360.41,30.76l10.45-30.18h1.69l12.14,31.19c1.01,2.62,1.84,4.35,2.47,5.17l.17.22.17.17.22.06v.28h-7.25v-.28l.34-.11s.06-.04.06-.11v-.28c0-.64-.19-1.57-.56-2.81-.37-1.24-.84-2.64-1.4-4.22-.04-.11-.28-.73-.73-1.85-.37-.9-.66-1.67-.84-2.3h-13.21c-.97,3-1.67,5.34-2.08,7.02-.6,2.06-.9,3.47-.9,4.21v.22c0,.08.02.13.06.17l.28.06v.28h-4.33v-.28l.22-.06c.07-.07.11-.13.11-.17l.11-.11.11-.06c.75-1.01,1.65-3.09,2.7-6.24ZM376.87,24.52l-6.46-17.31-5.9,17.31h12.36Z"/>
        <path class="cls-1" d="M394.18,1.76v-.34h12.64c3.18,0,5.92.75,8.2,2.25,2.32,1.54,3.48,3.78,3.48,6.74,0,1.54-.45,3.09-1.35,4.66-1.2,2.06-3.48,3.52-6.86,4.38,2.28.34,4.23.88,5.84,1.63,1.61.75,2.76,1.59,3.46,2.53.69.94,1.18,1.77,1.46,2.5.28.73.42,1.45.42,2.16,0,2.21-.73,4.06-2.19,5.56-2.55,2.55-6.24,3.82-11.07,3.82h-14.05v-.34h.22c.07-.07.11-.13.11-.17.41-1.01.62-3.44.62-7.31V9.24c0-3.86-.21-6.29-.62-7.31,0-.04-.04-.09-.11-.17h-.22ZM406.83,2.72h-6.91v16.47h5.45c2.51,0,4.53-.82,6.07-2.47,1.54-1.65,2.3-3.75,2.3-6.29,0-2.21-.63-4.05-1.88-5.51-1.26-1.46-2.93-2.19-5.03-2.19ZM404.69,20.25h-4.78v16.13h7.81c2.55,0,4.65-.74,6.29-2.22,1.65-1.48,2.47-3.44,2.47-5.87,0-1.84-.66-3.41-1.97-4.72-2.32-2.21-5.6-3.32-9.83-3.32Z"/>
        <path class="cls-1" d="M429.42,1.76v-.34h12.64c3.33,0,6.14.86,8.43,2.59,2.32,1.69,3.48,4.16,3.48,7.42,0,1.57-.49,3.26-1.46,5.06-.56,1.05-1.49,2-2.78,2.84-1.29.84-2.84,1.47-4.64,1.88l10.06,11.41,1.18,1.35.22.22c.11.19.26.39.45.59.19.21.36.39.51.53.94.86,1.85,1.29,2.75,1.29h.45v1.07h-2.08c-2.02,0-3.6-.21-4.72-.62-1.09-.41-2.25-1.37-3.48-2.87l-2.14-2.36-8.94-10.17h-4.21v8.2c0,2.7.07,4.63.22,5.79.04.52.13.95.28,1.29,0,.15.06.28.17.39h.22v.34h-6.63v-.34h.22c.11-.11.17-.24.17-.39.37-.9.56-3.26.56-7.08V9.24c0-3.82-.19-6.18-.56-7.08,0-.15-.02-.24-.06-.28l-.11-.11h-.22ZM442.06,2.72h-6.91v17.65h5.45c2.47,0,4.49-.83,6.04-2.5,1.55-1.67,2.33-3.81,2.33-6.44,0-2.32-.6-4.36-1.8-6.12-1.16-1.72-2.87-2.59-5.11-2.59Z"/>
        <path class="cls-1" d="M467.41,30.76l10.45-30.18h1.69l12.14,31.19c1.01,2.62,1.84,4.35,2.47,5.17l.17.22.17.17.22.06v.28h-7.25v-.28l.34-.11s.06-.04.06-.11v-.28c0-.64-.19-1.57-.56-2.81-.37-1.24-.84-2.64-1.4-4.22-.04-.11-.28-.73-.73-1.85-.37-.9-.66-1.67-.84-2.3h-13.21c-.97,3-1.67,5.34-2.08,7.02-.6,2.06-.9,3.47-.9,4.21v.22c0,.08.02.13.06.17l.28.06v.28h-4.33v-.28l.22-.06c.07-.07.11-.13.11-.17l.11-.11.11-.06c.75-1.01,1.65-3.09,2.7-6.24ZM483.87,24.52l-6.46-17.31-5.9,17.31h12.36Z"/>
        <path class="cls-1" d="M538.49,37.33h.28v.34h-6.63v-.34h.22c.3-.41.45-1.98.45-4.72,0-1.42-.02-2.34-.06-2.76l-.79-23.04-12.53,31.13h-1.69l-13.04-29.39-.79,20.51c-.04.34-.06,1.12-.06,2.36,0,2.14.11,3.75.34,4.83.07.41.19.73.34.95.04.04.06.08.06.11h.39v.34h-4.33v-.34h.28s.06-.09.06-.17c.04-.04.06-.07.06-.11.15-.34.26-.82.34-1.46.19-.94.36-2.85.51-5.73.56-14.68.84-22.12.84-22.31v-1.12c0-1.65-.06-2.89-.17-3.71,0-.19-.06-.45-.17-.79l-.06-.06-.06-.11h-.22v-.34h4.21l13.66,30.57,11.86-30.57h5.34v.34h-.28l-.11.22c-.22.64-.34,1.97-.34,3.99v1.13l1.07,22.76c.15,4.08.49,6.57,1.01,7.47Z"/>
        <path class="cls-1" d="M559.34,1.14c2.28,0,5.51.83,9.67,2.47.19.08.32.17.39.28v2.87h-.79c-.3-.6-.79-1.18-1.46-1.74-.75-.64-2.1-1.27-4.05-1.91-1.65-.52-2.98-.79-3.99-.79-2.21,0-4.03.71-5.45,2.14-1.42,1.42-2.14,3.26-2.14,5.51,0,1.46.86,2.9,2.58,4.33,1.72,1.42,4.16,2.62,7.31,3.6,3.37,1.09,5.88,2.56,7.53,4.41,1.65,1.85,2.47,3.78,2.47,5.76,0,3.15-1.11,5.6-3.32,7.36-2.17,1.69-4.87,2.53-8.09,2.53-3.82,0-7.81-.82-11.97-2.47-.26-.11-.39-.21-.39-.28-.08-.08-.09-.24-.06-.51l.06-.45v-1.91h.79c.52,1.09,1.27,1.85,2.25,2.3,2.4,1.23,5.17,1.93,8.32,2.08l.22.06h.17c2.47,0,4.49-.61,6.04-1.83,1.55-1.22,2.33-2.95,2.33-5.2,0-1.61-.86-3.18-2.59-4.69-1.72-1.52-4.21-2.8-7.47-3.85-3.26-1.05-5.69-2.44-7.31-4.19-1.61-1.74-2.42-3.55-2.42-5.42,0-3.3,1.07-5.86,3.2-7.7,2.1-1.84,4.81-2.75,8.15-2.75Z"/>
        <path class="cls-1" d="M595.98,37.95c-5.62,0-10.08-1.7-13.37-5.11-3.26-3.45-4.89-7.89-4.89-13.32s1.63-9.85,4.89-13.26c3.3-3.41,7.75-5.11,13.37-5.11s10,1.71,13.26,5.11c3.3,3.41,4.95,7.83,4.95,13.26s-1.65,9.91-4.95,13.32c-3.26,3.41-7.68,5.11-13.26,5.11ZM608.96,19.52c0-2.81-.43-5.51-1.29-8.09-.86-2.55-2.29-4.68-4.27-6.41-2.02-1.8-4.5-2.7-7.42-2.7s-5.41.9-7.47,2.7c-3.71,3.26-5.56,8.09-5.56,14.5,0,2.1.25,4.13.76,6.1.51,1.97,1.25,3.8,2.25,5.51.99,1.71,2.35,3.07,4.07,4.1,1.72,1.03,3.71,1.54,5.96,1.54s4.23-.51,5.96-1.54c1.72-1.03,3.08-2.4,4.07-4.1.99-1.7,1.73-3.54,2.22-5.51.49-1.97.73-4,.73-6.1Z"/>
        <path class="cls-1" d="M621.94,37.67v-.34l.28-.06c.45-.71.67-3.18.67-7.42V9.24c0-2.51-.09-4.48-.28-5.9-.11-.82-.24-1.35-.39-1.57h-.28v-.34h5.06l20.68,28.72V9.24c0-2.51-.09-4.48-.28-5.9-.11-.75-.19-1.16-.22-1.24l-.17-.34h-.22v-.34h3.88v.34l-.28.06s-.06.04-.06.11-.02.13-.06.17c-.15.49-.24.9-.28,1.24-.15,1.16-.22,3.13-.22,5.9v29.33h-1.69l-.06-.11-23.15-32.03v23.43c0,2.14.09,4.1.28,5.9.11.75.19,1.16.22,1.24l.17.34h.28v.34h-3.88Z"/>
      </g>
      <g>
        <rect class="cls-1" y="18.7" width="152.53" height="1.75"/>
        <g>
          <rect class="cls-1" x="47.56" y=".34" width="1.75" height="38.47"/>
          <polygon class="cls-1" points="103.31 39.08 84.99 1.76 84.72 1.76 67.02 38.77 65.44 38.01 83.62 0 86.09 .02 86.33 .51 104.89 38.31 103.31 39.08"/>
        </g>
      </g>
    </g>
  </g>
</svg>