<?xml version="1.0" encoding="UTF-8"?>
<svg id="Layer_2" data-name="Layer 2" xmlns="http://www.w3.org/2000/svg" viewBox="0 0 565.95 317.13">
  <defs>
    <style>
      .cls-1 {
        fill: #fff;
      }
    </style>
  </defs>
  <g id="Layer_1-2" data-name="Layer 1">
    <g>
      <g>
        <g>
          <path class="cls-1" d="M144.94,71.38v.65h-12.97v-.65h.54c0-.14.04-.25.11-.32.07-.07.11-.14.11-.21.29-1.01.47-1.95.54-2.81.36-2.74.54-6.41.54-11.03V17.33c0-4.9-.18-8.72-.54-11.46-.07-.87-.25-1.69-.54-2.49l-.22-.43h-.54v-.65h12.97v.65h-.54l-.22.43c-.29.8-.47,1.62-.54,2.49-.36,2.74-.54,6.56-.54,11.46v39.67c0,4.62.18,8.29.54,11.03.07,1.08.25,2.02.54,2.81,0,.07.07.25.22.54h.54Z"/>
          <path class="cls-1" d="M145.62,72.71h-14.34v-2.01h.74s.03-.04.04-.06c.27-.96.44-1.86.51-2.67.36-2.74.54-6.42.54-10.97V17.33c0-4.84-.18-8.66-.54-11.37-.07-.82-.24-1.59-.5-2.33h-.8V1.62h14.34v2.01h-.8l-.03.06c-.24.66-.4,1.44-.47,2.24-.36,2.72-.54,6.55-.54,11.4v39.67c0,4.57.18,8.25.53,10.94.07,1.05.24,1.94.51,2.67l.03.09h.77v2.01ZM133.25,71.34h10.37c-.06-.14-.1-.25-.11-.34-.3-.84-.48-1.82-.55-2.93-.36-2.7-.54-6.44-.54-11.07V17.33c0-4.91.18-8.8.55-11.54.07-.88.27-1.78.58-2.63l.08-.16h-10.33l.05.09c.34.93.53,1.82.61,2.74.36,2.73.54,6.61.54,11.51v39.67c0,4.61-.18,8.35-.55,11.12-.07.85-.25,1.82-.54,2.85-.02.13-.07.26-.14.38ZM132.12,70.58s0,0,0,0c0,0,0,0,0,0Z"/>
        </g>
        <g>
          <path class="cls-1" d="M166.45,2.95v-.65h12.86v.65h-.54l-.22.43c-.72,1.73-1.08,6.38-1.08,13.95v52.43h13.51c10.88,0,16.61-.97,17.19-2.92l1.51.11c0,.36-.05.88-.16,1.57-.11.68-.24,1.37-.38,2.05-.15.68-.22,1.1-.22,1.24v.21h-42.48v-.65h.43l.22-.43c.29-.65.47-1.44.54-2.38.36-2.88.54-6.74.54-11.57V17.33c0-4.83-.18-8.68-.54-11.57-.07-.93-.25-1.73-.54-2.38l-.22-.43h-.43Z"/>
          <path class="cls-1" d="M209.61,72.71h-43.85v-2.01h.69l.03-.06c.24-.55.4-1.27.47-2.13.36-2.88.54-6.74.54-11.51V17.33c0-4.77-.18-8.63-.54-11.48-.07-.89-.23-1.61-.49-2.19l-.02-.02h-.68V1.62h14.23v2.01h-.8l-.03.06c-.66,1.59-1.01,6.2-1.01,13.64v51.75h12.83c14.27,0,16.32-1.7,16.53-2.43l.16-.53,2.7.2v.64c0,.4-.06.94-.17,1.67-.11.7-.24,1.39-.39,2.09-.19.89-.2,1.09-.2,1.11v.89ZM167.66,71.34h40.64c.03-.21.09-.5.18-.92.14-.67.27-1.35.37-2.02.05-.31.09-.59.11-.83l-.37-.03c-.91,1.44-4.3,2.89-17.61,2.89h-14.2V17.33c0-7.73.37-12.38,1.13-14.21l.07-.14h-10.33l.05.09c.33.75.53,1.62.61,2.63.36,2.87.54,6.79.54,11.62v39.67c0,4.83-.18,8.75-.55,11.65-.07.98-.28,1.85-.59,2.57l-.06.12Z"/>
        </g>
        <g>
          <path class="cls-1" d="M257.36,72.57c-10.81,0-19.39-3.28-25.73-9.84-6.27-6.63-9.4-15.17-9.4-25.62s3.13-18.95,9.4-25.51c6.34-6.56,14.92-9.84,25.73-9.84s19.24,3.28,25.51,9.84c6.34,6.56,9.51,15.06,9.51,25.51s-3.17,19.06-9.51,25.62c-6.27,6.56-14.77,9.84-25.51,9.84ZM282.33,37.11c0-5.41-.83-10.6-2.49-15.57-1.66-4.9-4.4-9.01-8.22-12.32-3.89-3.46-8.65-5.19-14.27-5.19s-10.41,1.73-14.38,5.19c-7.13,6.27-10.7,15.57-10.7,27.89,0,4.03.49,7.94,1.46,11.73.97,3.78,2.41,7.31,4.32,10.59,1.91,3.28,4.52,5.91,7.84,7.89,3.31,1.98,7.13,2.97,11.46,2.97s8.14-.99,11.46-2.97c3.31-1.98,5.93-4.61,7.84-7.89,1.91-3.28,3.33-6.81,4.27-10.59.94-3.78,1.41-7.69,1.41-11.73Z"/>
          <path class="cls-1" d="M257.36,73.25c-10.95,0-19.77-3.38-26.22-10.04-6.37-6.74-9.6-15.51-9.6-26.09s3.23-19.32,9.59-25.98c6.45-6.67,15.27-10.05,26.22-10.05s19.63,3.38,26,10.05c6.44,6.66,9.7,15.4,9.7,25.98s-3.26,19.43-9.7,26.09c-6.37,6.66-15.12,10.04-26,10.04ZM257.36,2.45c-10.57,0-19.06,3.24-25.24,9.63-6.11,6.39-9.21,14.82-9.21,25.04s3.1,18.68,9.22,25.15c6.17,6.38,14.66,9.62,25.23,9.62s18.91-3.24,25.02-9.63c6.19-6.4,9.32-14.86,9.32-25.15s-3.14-18.64-9.32-25.04c-6.11-6.39-14.53-9.63-25.02-9.63ZM257.36,70.98c-4.43,0-8.41-1.03-11.81-3.07-3.4-2.03-6.12-4.77-8.08-8.14-1.93-3.31-3.41-6.94-4.39-10.77-.98-3.82-1.48-7.83-1.48-11.9,0-12.47,3.68-22.03,10.93-28.4,4.07-3.56,9.06-5.36,14.83-5.36s10.72,1.8,14.72,5.36c3.89,3.38,6.72,7.62,8.41,12.61,1.67,5.02,2.52,10.33,2.52,15.79,0,4.07-.48,8.07-1.43,11.89-.95,3.83-2.41,7.45-4.34,10.77-1.96,3.36-4.68,6.1-8.08,8.13-3.4,2.04-7.38,3.07-11.81,3.07ZM257.36,4.71c-5.43,0-10.11,1.69-13.93,5.02-6.94,6.1-10.47,15.32-10.47,27.38,0,3.96.48,7.84,1.44,11.56.95,3.71,2.38,7.21,4.25,10.42,1.84,3.16,4.4,5.74,7.6,7.65,3.19,1.91,6.92,2.87,11.11,2.87s7.92-.97,11.11-2.87c3.2-1.92,5.76-4.49,7.6-7.65,1.87-3.21,3.28-6.71,4.2-10.41.92-3.72,1.39-7.61,1.39-11.56,0-5.31-.82-10.47-2.45-15.35-1.61-4.76-4.31-8.8-8.02-12.02-3.75-3.33-8.4-5.02-13.82-5.02Z"/>
        </g>
        <g>
          <path class="cls-1" d="M307.3,72.02v-.65l.54-.11c.86-1.37,1.3-6.12,1.3-14.27V17.33c0-4.83-.18-8.61-.54-11.35-.22-1.58-.47-2.6-.76-3.03h-.54v-.65h9.73l39.78,55.24V17.33c0-4.83-.18-8.61-.54-11.35-.22-1.44-.36-2.23-.43-2.38l-.32-.65h-.43v-.65h7.46v.65l-.54.11c-.07,0-.11.07-.11.21s-.04.25-.11.32c-.29.94-.47,1.73-.54,2.38-.29,2.23-.43,6.02-.43,11.35v56.43h-3.24l-.11-.21-44.54-61.62v45.07c0,4.11.18,7.89.54,11.35.22,1.44.36,2.23.43,2.38l.32.65h.54v.65h-7.46Z"/>
          <path class="cls-1" d="M361.49,74.44h-4.34l-.3-.59-43.24-59.82v42.96c0,4.07.18,7.87.54,11.28.27,1.77.36,2.12.38,2.19l.12.23h.8v2.01h-8.82v-1.89l.77-.15c.51-1.14,1.06-4.49,1.06-13.66V17.33c0-4.77-.18-8.56-.53-11.26-.19-1.37-.37-2.08-.51-2.43h-.8V1.62h10.76l38.75,53.8V17.33c0-4.77-.18-8.56-.53-11.26-.27-1.79-.36-2.14-.39-2.21l-.13-.23h-.68V1.62h8.82v1.89l-.7.14c-.03.1-.07.19-.12.26-.26.85-.42,1.57-.48,2.14-.28,2.21-.43,5.99-.43,11.27v57.11ZM357.96,73.07h2.17V17.33c0-5.34.15-9.19.44-11.44.07-.68.26-1.5.56-2.49l.08-.19c0-.08.02-.15.03-.22h-4.95l.15.31c.07.14.16.33.5,2.58.36,2.77.55,6.62.55,11.45v42.33L316.68,2.98h-8.05c.2.46.43,1.29.65,2.9.36,2.77.55,6.61.55,11.44v39.67c0,10.15-.67,13.17-1.24,14.34h4.86l-.15-.3c-.07-.14-.16-.32-.5-2.58-.36-3.49-.55-7.33-.55-11.45V9.81l45.72,63.26Z"/>
        </g>
        <g>
          <path class="cls-1" d="M381.45,58.73L401.56.68h3.24l23.35,59.99c1.95,5.04,3.53,8.36,4.76,9.94l.32.43.32.32.43.11v.54h-13.94v-.54l.65-.22c.07,0,.11-.07.11-.22v-.54c0-1.22-.36-3.03-1.08-5.4-.72-2.38-1.62-5.08-2.7-8.11-.07-.21-.54-1.41-1.41-3.57-.72-1.73-1.26-3.21-1.62-4.43h-25.4c-1.87,5.76-3.21,10.27-4,13.51-1.15,3.97-1.73,6.67-1.73,8.11v.43c0,.15.04.26.11.32l.54.11v.54h-8.32v-.54l.43-.11c.14-.14.22-.25.22-.32l.22-.21.22-.11c1.44-1.95,3.17-5.95,5.19-12ZM413.12,46.73l-12.43-33.29-11.35,33.29h23.78Z"/>
          <path class="cls-1" d="M434.67,72.71h-15.31v-1.71l.76-.25v-.23c0-1.15-.35-2.9-1.05-5.21-.71-2.36-1.62-5.08-2.69-8.08-.03-.09-.21-.58-1.4-3.54-.63-1.52-1.14-2.87-1.49-4h-24.4c-1.78,5.5-3.07,9.87-3.83,12.99-1.14,3.91-1.71,6.57-1.71,7.94v.18l.65.13v1.78h-9.69v-1.75l.65-.19.66-.57c1.38-1.93,3.05-5.86,4.99-11.68h0S401.07,0,401.07,0h4.2l23.52,60.43c1.92,4.97,3.48,8.25,4.66,9.77l.45.56.77.2v1.75ZM421.45,71.34h11.15l-.24-.31c-1.27-1.64-2.86-4.95-4.85-10.11L404.33,1.37h-2.29l-19.95,57.58c-2.06,6.18-3.79,10.16-5.29,12.19l-.1.13-.15.07h5.64c-.02-.09-.03-.18-.03-.29v-.43c0-1.52.57-4.23,1.76-8.3.78-3.22,2.13-7.78,4-13.53l.15-.47h26.41l.14.49c.35,1.18.88,2.65,1.6,4.36.59,1.48,1.32,3.3,1.42,3.61,1.08,3.01,1.99,5.75,2.71,8.13.75,2.47,1.11,4.3,1.11,5.6v.54c0,.11-.01.2-.03.29ZM414.11,47.41h-25.72l12.27-36.01,13.44,36.01ZM390.3,46.05h21.84l-11.42-30.58-10.42,30.58Z"/>
        </g>
      </g>
      <g>
        <g>
          <path class="cls-1" d="M6.95,172.21l20.11-58.05h3.24l23.35,59.99c1.95,5.04,3.53,8.36,4.76,9.94l.32.43.32.32.43.11v.54h-13.94v-.54l.65-.22c.07,0,.11-.07.11-.22v-.54c0-1.22-.36-3.03-1.08-5.4-.72-2.38-1.62-5.08-2.7-8.11-.07-.21-.54-1.41-1.41-3.57-.72-1.73-1.26-3.21-1.62-4.43H14.09c-1.87,5.76-3.21,10.27-4,13.51-1.15,3.97-1.73,6.67-1.73,8.11v.43c0,.15.04.26.11.32l.54.11v.54H.68v-.54l.43-.11c.14-.14.22-.25.22-.32l.22-.21.22-.11c1.44-1.95,3.17-5.95,5.19-12ZM38.62,160.21l-12.43-33.29-11.35,33.29h23.78Z"/>
          <path class="cls-1" d="M60.17,186.19h-15.31v-1.71l.76-.25v-.23c0-1.15-.35-2.9-1.05-5.21-.71-2.35-1.62-5.07-2.69-8.08-.06-.18-.46-1.2-1.4-3.54-.63-1.52-1.13-2.86-1.49-4H14.58c-1.78,5.49-3.07,9.86-3.83,12.99-1.14,3.91-1.71,6.57-1.71,7.94v.18l.65.13v1.78H0v-1.75l.65-.19.66-.57c1.38-1.93,3.05-5.86,4.99-11.68h0s20.26-58.51,20.26-58.51h4.2l23.52,60.43c1.92,4.97,3.48,8.25,4.66,9.77l.45.56.77.2v1.75ZM46.95,184.82h11.15l-.24-.31c-1.27-1.64-2.86-4.95-4.85-10.11l-23.18-59.56h-2.29l-19.95,57.58c-2.06,6.17-3.79,10.16-5.29,12.19l-.1.13-.15.07h5.64c-.02-.09-.03-.18-.03-.29v-.43c0-1.52.57-4.23,1.76-8.3.79-3.22,2.14-7.78,4.01-13.53l.15-.47h26.41l.14.49c.35,1.19.89,2.65,1.6,4.36.48,1.21,1.31,3.27,1.42,3.61,1.08,3.02,1.99,5.76,2.71,8.13.75,2.47,1.11,4.3,1.11,5.6v.54c0,.11-.01.2-.03.29ZM39.61,160.89H13.89l12.27-36.01,13.44,36.01ZM15.8,159.53h21.84l-11.42-30.58-10.42,30.58Z"/>
        </g>
        <g>
          <path class="cls-1" d="M71.92,116.43v-.65h24.32c6.12,0,11.39,1.44,15.78,4.33,4.47,2.95,6.7,7.28,6.7,12.97,0,2.95-.86,5.95-2.59,8.97-2.31,3.97-6.7,6.78-13.19,8.43,4.39.65,8.14,1.69,11.24,3.13,3.1,1.44,5.31,3.06,6.65,4.86,1.33,1.8,2.27,3.41,2.81,4.81.54,1.41.81,2.79.81,4.16,0,4.25-1.41,7.82-4.22,10.7-4.9,4.9-12,7.35-21.29,7.35h-27.02v-.65h.43c.14-.14.22-.25.22-.32.79-1.94,1.19-6.63,1.19-14.05v-39.67c0-7.42-.4-12.1-1.19-14.05,0-.07-.07-.18-.22-.32h-.43ZM96.24,118.27h-13.3v31.67h10.49c4.83,0,8.72-1.58,11.67-4.76,2.95-3.17,4.43-7.2,4.43-12.1,0-4.25-1.21-7.78-3.62-10.59-2.42-2.81-5.64-4.22-9.67-4.22ZM92.13,152h-9.19v31.02h15.02c4.9,0,8.94-1.42,12.11-4.27,3.17-2.85,4.76-6.61,4.76-11.3,0-3.53-1.26-6.56-3.78-9.08-4.47-4.25-10.77-6.38-18.92-6.38Z"/>
          <path class="cls-1" d="M98.94,186.19h-27.71v-2.01h.74c.73-1.92,1.1-6.52,1.1-13.69v-39.67c0-7.17-.37-11.77-1.1-13.69h-.74v-2.01h25c6.23,0,11.66,1.49,16.16,4.44,4.65,3.08,7.01,7.63,7.01,13.54,0,3.06-.9,6.19-2.68,9.31-2.04,3.51-5.66,6.16-10.8,7.92,3.24.65,6.1,1.55,8.54,2.69,3.19,1.49,5.51,3.2,6.91,5.08,1.36,1.84,2.34,3.52,2.9,4.97.57,1.48.86,2.96.86,4.41,0,4.42-1.48,8.18-4.41,11.18-5.01,5.02-12.34,7.56-21.78,7.56ZM73.2,184.82h25.75c9.07,0,16.07-2.41,20.81-7.15,2.66-2.73,4.02-6.17,4.02-10.22,0-1.28-.26-2.6-.77-3.92-.52-1.34-1.43-2.91-2.72-4.65-1.26-1.7-3.41-3.26-6.39-4.65-3.02-1.41-6.74-2.44-11.05-3.08l-3.36-.5,3.29-.84c6.27-1.6,10.56-4.33,12.77-8.11,1.66-2.9,2.5-5.81,2.5-8.63,0-5.5-2.09-9.56-6.4-12.4-4.26-2.8-9.45-4.21-15.41-4.21h-23.04s.02.07.03.11c.81,2.09,1.21,6.75,1.21,14.24v39.67c0,7.49-.4,12.15-1.21,14.24,0,.04-.02.07-.03.11ZM97.97,183.7h-15.71v-32.39h9.87c8.28,0,14.81,2.21,19.39,6.56,2.66,2.65,4,5.87,4,9.58,0,4.86-1.68,8.83-4.98,11.8-3.29,2.95-7.51,4.44-12.56,4.44ZM83.63,182.34h14.34c4.7,0,8.62-1.38,11.65-4.09,3.01-2.7,4.53-6.33,4.53-10.79,0-3.33-1.21-6.22-3.58-8.6-4.31-4.09-10.51-6.18-18.43-6.18h-8.51v29.66ZM93.43,150.63h-11.17v-33.04h13.98c4.22,0,7.65,1.5,10.19,4.46,2.51,2.92,3.79,6.64,3.79,11.04,0,5.05-1.55,9.28-4.62,12.57-3.07,3.3-7.17,4.97-12.17,4.97ZM83.63,149.26h9.8c4.61,0,8.37-1.53,11.17-4.54,2.82-3.03,4.25-6.94,4.25-11.64,0-4.06-1.16-7.48-3.46-10.15-2.3-2.68-5.29-3.98-9.16-3.98h-12.61v30.31Z"/>
        </g>
        <g>
          <path class="cls-1" d="M139.69,116.43v-.65h24.32c6.41,0,11.82,1.66,16.21,4.98,4.47,3.24,6.7,8,6.7,14.27,0,3.03-.94,6.27-2.81,9.73-1.08,2.02-2.86,3.84-5.35,5.46-2.49,1.62-5.46,2.83-8.92,3.62l19.35,21.94,2.27,2.59.43.43c.22.36.5.74.86,1.13.36.4.68.74.97,1.03,1.8,1.66,3.57,2.49,5.3,2.49h.86v2.05h-4c-3.89,0-6.92-.4-9.08-1.19-2.09-.79-4.32-2.63-6.7-5.51l-4.11-4.54-17.19-19.57h-8.11v15.78c0,5.19.14,8.9.43,11.13.07,1.01.25,1.84.54,2.49,0,.29.11.54.32.76h.43v.65h-12.76v-.65h.43c.22-.21.32-.47.32-.76.72-1.73,1.08-6.27,1.08-13.62v-39.67c0-7.35-.36-11.89-1.08-13.62,0-.29-.04-.47-.11-.54l-.22-.22h-.43ZM164.02,118.27h-13.3v33.94h10.49c4.76,0,8.63-1.6,11.62-4.81,2.99-3.21,4.49-7.33,4.49-12.38,0-4.47-1.15-8.39-3.46-11.78-2.23-3.31-5.51-4.98-9.84-4.98Z"/>
          <path class="cls-1" d="M200.59,186.19h-4.68c-3.95,0-7.09-.41-9.32-1.23-2.2-.83-4.55-2.76-6.99-5.72l-4.09-4.52-16.99-19.34h-7.12v15.1c0,5.14.14,8.86.43,11.05.07.96.23,1.72.49,2.3l.06.13v.15s0,.05,0,.07h.75v2.01h-14.12v-2.01h.75s0-.05,0-.07l.05-.26c.68-1.64,1.03-6.13,1.03-13.36v-39.67c0-7.22-.35-11.72-1.03-13.36l-.05-.26s0-.05,0-.07h-.76v-2.01h25c6.53,0,12.13,1.72,16.63,5.11,4.62,3.36,6.97,8.34,6.97,14.81,0,3.13-.97,6.51-2.89,10.05-1.13,2.11-3.01,4.03-5.58,5.71-2.28,1.48-4.97,2.64-8.03,3.44l21.38,24.22c.2.33.46.68.78,1.02.35.39.67.73.95,1,1.64,1.51,3.27,2.29,4.82,2.29h1.55v3.42ZM150.04,154.01h9.1l17.39,19.8,4.1,4.53c2.31,2.8,4.47,4.59,6.44,5.33,2.07.76,5.05,1.14,8.84,1.14h3.32v-.69h-.18c-1.9,0-3.84-.9-5.76-2.67-.31-.31-.65-.66-1.02-1.07-.35-.38-.66-.78-.9-1.17l-.37-.37-2.3-2.63-20.11-22.8,1.12-.26c3.36-.77,6.28-1.96,8.7-3.53,2.38-1.55,4.1-3.31,5.12-5.21,1.81-3.35,2.73-6.51,2.73-9.41,0-6.01-2.16-10.62-6.42-13.71-4.27-3.22-9.58-4.85-15.81-4.85h-22.99c.08.19.1.39.11.59.73,1.91,1.08,6.41,1.08,13.76v39.67c0,7.36-.36,11.86-1.09,13.77-.02.2-.07.4-.15.58h10.19c-.08-.18-.13-.37-.15-.57-.29-.7-.47-1.57-.55-2.59-.29-2.21-.43-5.98-.43-11.18v-16.46ZM161.21,152.89h-11.17v-35.31h13.98c4.54,0,8.04,1.78,10.4,5.28,2.37,3.48,3.58,7.58,3.58,12.16,0,5.2-1.57,9.52-4.67,12.85-3.11,3.33-7.19,5.02-12.12,5.02ZM151.4,151.53h9.8c4.54,0,8.28-1.54,11.12-4.59,2.85-3.06,4.3-7.07,4.3-11.91,0-4.31-1.12-8.14-3.34-11.4-2.12-3.15-5.16-4.68-9.27-4.68h-12.61v32.58Z"/>
        </g>
        <g>
          <path class="cls-1" d="M212.77,172.21l20.11-58.05h3.24l23.35,59.99c1.95,5.04,3.53,8.36,4.76,9.94l.32.43.32.32.43.11v.54h-13.94v-.54l.65-.22c.07,0,.11-.07.11-.22v-.54c0-1.22-.36-3.03-1.08-5.4-.72-2.38-1.62-5.08-2.7-8.11-.07-.21-.54-1.41-1.41-3.57-.72-1.73-1.26-3.21-1.62-4.43h-25.4c-1.87,5.76-3.21,10.27-4,13.51-1.15,3.97-1.73,6.67-1.73,8.11v.43c0,.15.04.26.11.32l.54.11v.54h-8.32v-.54l.43-.11c.14-.14.22-.25.22-.32l.22-.21.22-.11c1.44-1.95,3.17-5.95,5.19-12ZM244.44,160.21l-12.43-33.29-11.35,33.29h23.78Z"/>
          <path class="cls-1" d="M265.98,186.19h-15.31v-1.71l.76-.25v-.23c0-1.15-.35-2.9-1.05-5.21-.72-2.37-1.62-5.08-2.69-8.08-.03-.09-.21-.58-1.4-3.54-.63-1.52-1.14-2.86-1.49-4h-24.4c-1.78,5.49-3.07,9.86-3.83,12.99-1.14,3.91-1.71,6.57-1.71,7.94v.18l.65.13v1.78h-9.69v-1.75l.65-.19.66-.57c1.38-1.93,3.05-5.86,4.99-11.68h0s20.26-58.51,20.26-58.51h4.2l23.52,60.43c1.92,4.97,3.48,8.25,4.66,9.77l.45.56.77.2v1.75ZM252.76,184.82h11.15l-.24-.31c-1.27-1.64-2.86-4.95-4.85-10.11l-23.18-59.56h-2.29l-19.95,57.58c-2.06,6.17-3.79,10.16-5.29,12.19l-.1.13-.15.07h5.64c-.02-.09-.03-.18-.03-.29v-.43c0-1.52.57-4.23,1.76-8.3.79-3.22,2.14-7.78,4.01-13.53l.15-.47h26.41l.14.49c.35,1.18.88,2.65,1.6,4.36.59,1.48,1.32,3.3,1.42,3.61,1.07,3.01,1.99,5.75,2.71,8.13.75,2.47,1.11,4.3,1.11,5.6v.54c0,.11-.01.2-.03.29ZM245.42,160.89h-25.72l12.27-36.01,13.44,36.01ZM221.61,159.53h21.84l-11.42-30.58-10.42,30.58Z"/>
        </g>
        <g>
          <path class="cls-1" d="M349.51,184.86h.54v.65h-12.75v-.65h.43c.58-.79.86-3.82.86-9.08,0-2.74-.04-4.5-.11-5.3l-1.51-44.32-24.11,59.89h-3.24l-25.08-56.53-1.51,39.45c-.07.65-.11,2.16-.11,4.54,0,4.11.22,7.21.65,9.3.14.79.36,1.41.65,1.84.07.07.11.15.11.21h.76v.65h-8.32v-.65h.54c.07-.07.11-.18.11-.32.07-.07.11-.14.11-.21.29-.65.5-1.58.65-2.81.36-1.8.68-5.47.97-11.03,1.08-28.25,1.62-42.55,1.62-42.91v-2.16c0-3.17-.11-5.55-.32-7.14,0-.36-.11-.86-.32-1.51l-.11-.11-.11-.22h-.43v-.65h8.11l26.27,58.81,22.81-58.81h10.27v.65h-.54l-.22.43c-.43,1.23-.65,3.78-.65,7.68v2.16l2.05,43.78c.29,7.86.94,12.65,1.95,14.38Z"/>
          <path class="cls-1" d="M313.33,186.73h-4.15l-24.06-54.25-1.4,36.51c-.07.67-.11,2.17-.11,4.51,0,4.04.21,7.12.64,9.16.12.66.28,1.16.49,1.51h1.04v2.01h-9.69v-2.01h.76s.06-.13.06-.13c.26-.58.46-1.46.59-2.61.36-1.81.68-5.49.97-10.98,1.41-36.71,1.62-42.62,1.62-42.88v-2.16c0-3.13-.11-5.5-.32-7.04,0-.27-.05-.62-.25-1.24h-.05s-.68,0-.68,0v-2.01h9.23l25.78,57.71,22.38-57.71h11.42v2.01h-.8l-.03.05c-.37,1.07-.58,3.58-.58,7.37v2.17l2.05,43.74c.32,8.78,1.06,12.33,1.68,13.73h.81v2.01h-14.12v-2.01h.7c.25-.68.6-2.67.6-8.39,0-2.69-.04-4.45-.11-5.24l-1.41-41.13-23.07,57.32ZM310.07,185.36h2.34l25.14-62.45,1.62,47.55c.07.79.11,2.59.11,5.32,0,5.97-.37,8.12-.76,9.04h10.2c-.96-2.08-1.57-6.77-1.84-14.32l-2.05-43.77v-2.2c0-4,.22-6.59.69-7.9l.08-.17h-8.48l-23.23,59.9-26.76-59.9h-6.39l.02.07c.24.73.36,1.29.36,1.73.21,1.51.32,3.95.32,7.14v2.16c0,.38-.55,14.83-1.62,42.94-.29,5.65-.62,9.29-.99,11.14-.14,1.2-.36,2.15-.65,2.86-.02.1-.06.2-.11.29,0,.01,0,.02,0,.03h5.46c-.28-.49-.49-1.11-.63-1.89-.44-2.11-.66-5.29-.66-9.42,0-2.43.04-3.94.11-4.62l1.62-42.35,26.09,58.82ZM276.94,184.04s-.03.04-.05.06l.05-.06Z"/>
        </g>
        <g>
          <path class="cls-1" d="M389.61,115.24c4.39,0,10.59,1.59,18.59,4.75.36.15.61.32.76.54v5.51h-1.51c-.58-1.15-1.51-2.27-2.81-3.35-1.44-1.22-4.04-2.45-7.78-3.67-3.17-1.01-5.73-1.52-7.68-1.52-4.25,0-7.75,1.37-10.49,4.11-2.74,2.74-4.11,6.27-4.11,10.59,0,2.81,1.66,5.59,4.97,8.32,3.31,2.74,8,5.05,14.05,6.92,6.49,2.09,11.31,4.92,14.48,8.48,3.17,3.57,4.76,7.26,4.76,11.08,0,6.05-2.13,10.77-6.38,14.16-4.18,3.24-9.37,4.86-15.57,4.86-7.35,0-15.03-1.58-23.02-4.76-.5-.21-.76-.4-.76-.54-.15-.15-.18-.47-.11-.97l.11-.87v-3.67h1.51c1.01,2.09,2.45,3.57,4.32,4.43,4.61,2.38,9.95,3.71,16,4l.43.11h.32c4.76,0,8.63-1.17,11.62-3.51,2.99-2.34,4.49-5.67,4.49-10,0-3.1-1.66-6.11-4.97-9.03-3.32-2.92-8.11-5.39-14.38-7.4-6.27-2.02-10.95-4.7-14.05-8.05-3.1-3.35-4.65-6.83-4.65-10.43,0-6.34,2.05-11.28,6.16-14.81,4.04-3.53,9.26-5.3,15.67-5.3Z"/>
          <path class="cls-1" d="M390.91,186.73c-7.41,0-15.24-1.62-23.28-4.81-.51-.22-.98-.47-1.13-.87-.25-.4-.22-.93-.16-1.37l.11-.86v-4.27s2.62,0,2.62,0l.19.39c.95,1.96,2.25,3.3,3.99,4.11,4.54,2.34,9.83,3.66,15.74,3.94l.13.02.35.09h.24c4.58,0,8.35-1.13,11.2-3.37,2.84-2.22,4.22-5.32,4.22-9.46,0-2.88-1.6-5.75-4.74-8.51-3.23-2.84-7.99-5.29-14.14-7.27-6.36-2.05-11.18-4.82-14.34-8.24-3.2-3.47-4.83-7.13-4.83-10.9,0-6.52,2.15-11.68,6.4-15.33,4.14-3.62,9.57-5.46,16.12-5.46,4.46,0,10.8,1.62,18.84,4.8.5.2.85.46,1.07.8l.12.17v6.4h-2.62l-.19-.38c-.53-1.07-1.42-2.12-2.64-3.13-1.38-1.17-3.92-2.36-7.56-3.55-3.09-.98-5.6-1.48-7.46-1.48-4.04,0-7.41,1.32-10,3.91-2.59,2.59-3.91,5.99-3.91,10.11,0,2.58,1.59,5.21,4.72,7.8,3.23,2.67,7.88,4.96,13.82,6.79,6.58,2.12,11.55,5.04,14.79,8.68,3.27,3.68,4.93,7.56,4.93,11.54,0,6.24-2.23,11.18-6.64,14.69-4.29,3.33-9.67,5.01-15.99,5.01ZM367.81,180.5c.07.04.18.09.34.16,7.86,3.12,15.52,4.7,22.76,4.7,6.01,0,11.11-1.59,15.15-4.72,4.05-3.23,6.11-7.82,6.11-13.62,0-3.63-1.54-7.21-4.58-10.63-3.08-3.46-7.85-6.25-14.18-8.29-6.1-1.89-10.91-4.26-14.28-7.04-3.46-2.86-5.22-5.84-5.22-8.85,0-4.49,1.45-8.22,4.31-11.08,2.86-2.86,6.55-4.31,10.97-4.31,2.03,0,4.61.51,7.88,1.55,3.87,1.26,6.49,2.51,8.02,3.8,1.22,1.01,2.15,2.09,2.78,3.19h.42v-4.56c-.07-.05-.17-.11-.33-.18-7.88-3.12-14.05-4.7-18.34-4.7-6.21,0-11.34,1.73-15.22,5.13-3.93,3.38-5.93,8.19-5.93,14.29,0,3.41,1.5,6.76,4.47,9.97,3,3.25,7.63,5.89,13.76,7.87,6.33,2.04,11.25,4.58,14.62,7.54,3.45,3.04,5.2,6.25,5.2,9.54,0,4.52-1.6,8.07-4.75,10.53-3.1,2.43-7.15,3.66-12.04,3.66l-.49-.02-.37-.09c-6.09-.3-11.54-1.66-16.21-4.07-1.87-.86-3.37-2.33-4.43-4.36h-.41v2.99l-.11.95c-.04.27-.03.41-.03.47l.14.17Z"/>
        </g>
        <g>
          <path class="cls-1" d="M460.09,186.05c-10.81,0-19.39-3.28-25.73-9.84-6.27-6.63-9.4-15.17-9.4-25.62s3.13-18.95,9.4-25.51c6.34-6.56,14.92-9.84,25.73-9.84s19.24,3.28,25.51,9.84c6.34,6.56,9.51,15.06,9.51,25.51s-3.17,19.06-9.51,25.62c-6.27,6.56-14.77,9.84-25.51,9.84ZM485.06,150.59c0-5.41-.83-10.6-2.49-15.57-1.66-4.9-4.4-9.01-8.22-12.32-3.89-3.46-8.65-5.19-14.27-5.19s-10.41,1.73-14.38,5.19c-7.13,6.27-10.7,15.57-10.7,27.89,0,4.03.49,7.94,1.46,11.73.97,3.78,2.41,7.31,4.32,10.59,1.91,3.28,4.52,5.91,7.84,7.89,3.31,1.98,7.13,2.97,11.46,2.97s8.14-.99,11.46-2.97c3.31-1.98,5.93-4.61,7.84-7.89,1.91-3.28,3.33-6.81,4.27-10.59.94-3.78,1.41-7.69,1.41-11.73Z"/>
          <path class="cls-1" d="M460.09,186.73c-10.95,0-19.77-3.38-26.22-10.04-6.37-6.74-9.6-15.51-9.6-26.09s3.23-19.32,9.59-25.98c6.45-6.67,15.27-10.05,26.22-10.05s19.63,3.38,26,10.05c6.44,6.66,9.7,15.4,9.7,25.98s-3.26,19.43-9.7,26.09c-6.37,6.66-15.12,10.04-26,10.04ZM460.09,115.93c-10.57,0-19.06,3.24-25.24,9.63-6.11,6.39-9.21,14.82-9.21,25.04s3.1,18.68,9.22,25.15c6.17,6.38,14.66,9.62,25.23,9.62s18.91-3.24,25.02-9.63c6.19-6.4,9.32-14.86,9.32-25.15s-3.14-18.64-9.32-25.04c-6.11-6.39-14.53-9.63-25.02-9.63ZM460.09,184.46c-4.43,0-8.41-1.03-11.81-3.07-3.4-2.03-6.12-4.77-8.08-8.14-1.93-3.32-3.41-6.94-4.39-10.77-.98-3.82-1.48-7.83-1.48-11.9,0-12.47,3.68-22.03,10.93-28.4,4.07-3.56,9.06-5.36,14.83-5.36s10.72,1.8,14.72,5.36c3.89,3.38,6.72,7.62,8.41,12.61,1.67,5.02,2.52,10.33,2.52,15.79,0,4.07-.48,8.07-1.42,11.89-.95,3.83-2.41,7.45-4.34,10.77-1.96,3.36-4.68,6.1-8.08,8.14-3.4,2.04-7.38,3.07-11.81,3.07ZM460.09,118.2c-5.43,0-10.11,1.69-13.93,5.02-6.94,6.1-10.47,15.32-10.47,27.38,0,3.96.48,7.84,1.44,11.56.95,3.71,2.38,7.21,4.25,10.42,1.84,3.16,4.4,5.74,7.6,7.65,3.19,1.91,6.92,2.87,11.11,2.87s7.92-.97,11.11-2.87c3.2-1.92,5.76-4.49,7.6-7.65,1.87-3.21,3.28-6.71,4.2-10.41.92-3.71,1.39-7.61,1.39-11.56,0-5.31-.82-10.47-2.45-15.35-1.61-4.76-4.31-8.8-8.02-12.02-3.75-3.33-8.4-5.02-13.82-5.02Z"/>
        </g>
        <g>
          <path class="cls-1" d="M510.03,185.5v-.65l.54-.11c.86-1.37,1.3-6.12,1.3-14.27v-39.67c0-4.83-.18-8.61-.54-11.35-.22-1.58-.47-2.6-.76-3.03h-.54v-.65h9.73l39.78,55.24v-40.21c0-4.83-.18-8.61-.54-11.35-.22-1.44-.36-2.23-.43-2.38l-.32-.65h-.43v-.65h7.46v.65l-.54.11c-.07,0-.11.07-.11.21s-.04.25-.11.32c-.29.94-.47,1.73-.54,2.38-.29,2.23-.43,6.02-.43,11.35v56.43h-3.24l-.11-.21-44.54-61.62v45.07c0,4.11.18,7.89.54,11.35.22,1.44.36,2.23.43,2.38l.32.65h.54v.65h-7.46Z"/>
          <path class="cls-1" d="M564.22,187.92h-4.35l-.27-.54-43.27-59.86v42.96c0,4.07.18,7.87.54,11.28.27,1.77.36,2.12.38,2.19l.12.23h.8v2.01h-8.82v-1.89l.77-.15c.51-1.14,1.06-4.5,1.06-13.66v-39.67c0-4.77-.18-8.56-.53-11.26-.19-1.37-.37-2.08-.51-2.43h-.8v-2.01h10.76l38.75,53.8v-38.1c0-4.77-.18-8.56-.53-11.26-.27-1.79-.36-2.14-.39-2.21l-.13-.23h-.68v-2.01h8.82v1.89l-.7.14c-.03.1-.07.19-.12.26-.26.85-.42,1.57-.48,2.14-.28,2.2-.43,5.99-.43,11.27v57.11ZM560.69,186.55h2.17v-55.74c0-5.34.15-9.19.44-11.44.07-.68.26-1.5.56-2.49l.08-.19c0-.08.02-.16.03-.22h-4.95l.15.31c.07.14.16.32.5,2.58.36,2.77.55,6.62.55,11.45v42.33l-40.81-56.67h-8.05c.2.46.43,1.29.65,2.9.36,2.76.55,6.61.55,11.44v39.67c0,10.15-.67,13.17-1.24,14.34h4.86l-.15-.3c-.07-.14-.16-.32-.5-2.58-.36-3.49-.55-7.33-.55-11.45v-47.18l45.72,63.26Z"/>
        </g>
      </g>
      <g>
        <g>
          <path class="cls-1" d="M128.22,251.3c.73.87,1.1,1.99,1.1,3.36,0,1.76-.65,3.12-1.95,4.06-1.3.95-3.22,1.42-5.77,1.42h-9.45v-20.55h8.87c2.29,0,4.07.46,5.33,1.38,1.26.92,1.89,2.22,1.89,3.91,0,1.14-.28,2.1-.84,2.89-.56.79-1.33,1.39-2.31,1.78,1.35.3,2.39.88,3.13,1.75ZM114.32,241.39v7.46h6.55c1.66,0,2.95-.32,3.85-.95.9-.63,1.35-1.56,1.35-2.77s-.45-2.14-1.35-2.77c-.9-.63-2.18-.95-3.85-.95h-6.55ZM125.74,257.42c.94-.63,1.41-1.6,1.41-2.94,0-2.56-1.86-3.84-5.58-3.84h-7.25v7.72h7.25c1.84,0,3.23-.31,4.17-.94Z"/>
          <path class="cls-1" d="M154.18,260.15l-4.7-6.61c-.53.06-1.08.09-1.64.09h-5.52v6.52h-2.17v-20.55h7.69c2.62,0,4.68.63,6.16,1.88,1.49,1.25,2.23,2.97,2.23,5.17,0,1.6-.41,2.96-1.22,4.06-.81,1.11-1.97,1.9-3.48,2.39l5.02,7.04h-2.38ZM152.45,250.43c1.08-.9,1.61-2.16,1.61-3.79s-.54-2.94-1.61-3.83c-1.08-.89-2.63-1.33-4.67-1.33h-5.46v10.3h5.46c2.04,0,3.59-.45,4.67-1.35Z"/>
          <path class="cls-1" d="M180.14,254.66h-11.45l-2.47,5.49h-2.26l9.39-20.55h2.14l9.39,20.55h-2.29l-2.47-5.49ZM179.34,252.9l-4.93-11.04-4.93,11.04h9.86Z"/>
          <path class="cls-1" d="M211.34,239.6v20.55h-1.79l-13.21-16.68v16.68h-2.17v-20.55h1.79l13.24,16.68v-16.68h2.14Z"/>
          <path class="cls-1" d="M223.91,239.6h8.37c2.17,0,4.09.44,5.75,1.31,1.66.87,2.96,2.09,3.87,3.64.92,1.55,1.38,3.33,1.38,5.33s-.46,3.77-1.38,5.33c-.92,1.55-2.21,2.77-3.87,3.64-1.66.87-3.58,1.31-5.75,1.31h-8.37v-20.55ZM232.16,258.27c1.8,0,3.38-.36,4.73-1.07,1.35-.72,2.4-1.7,3.14-2.97.74-1.26,1.12-2.71,1.12-4.36s-.37-3.1-1.12-4.36c-.74-1.26-1.79-2.25-3.14-2.96-1.35-.72-2.93-1.07-4.73-1.07h-6.08v16.79h6.08Z"/>
          <path class="cls-1" d="M282.3,260.47l-2.85-2.94c-1.74,1.86-4.03,2.79-6.87,2.79-1.33,0-2.52-.22-3.57-.66-1.05-.44-1.86-1.05-2.45-1.85-.59-.79-.88-1.7-.88-2.71,0-1.23.39-2.34,1.17-3.32.78-.98,2.11-2.01,3.99-3.08-.98-1.02-1.65-1.88-2.03-2.6-.37-.71-.56-1.47-.56-2.27,0-1.31.47-2.37,1.41-3.17.94-.8,2.2-1.2,3.79-1.2,1.47,0,2.63.36,3.49,1.09.86.72,1.29,1.72,1.29,2.99,0,1.02-.34,1.93-1.03,2.75-.69.81-1.87,1.71-3.55,2.69l5.64,5.81c.63-1.12,1.09-2.44,1.38-3.97l1.7.53c-.37,1.84-.98,3.42-1.82,4.73l2.94,3.02-1.2,1.38ZM278.22,256.27l-6.19-6.37c-1.62.92-2.74,1.75-3.36,2.49s-.93,1.58-.93,2.5c0,1.11.46,2.01,1.37,2.68.91.67,2.11,1.01,3.6,1.01,2.27,0,4.11-.77,5.52-2.32ZM271.07,241.77c-.58.51-.87,1.18-.87,2.02,0,.61.16,1.18.47,1.73s.93,1.29,1.85,2.23c1.49-.86,2.51-1.6,3.08-2.2.57-.61.85-1.27.85-2,0-.78-.26-1.41-.79-1.87-.53-.46-1.26-.69-2.2-.69-1.02,0-1.82.26-2.39.77Z"/>
          <path class="cls-1" d="M323.75,239.6l-9.1,20.55h-2.14l-9.1-20.55h2.35l7.87,17.85,7.93-17.85h2.2Z"/>
          <path class="cls-1" d="M347.12,258.27v1.88h-14.53v-20.55h14.09v1.88h-11.92v7.31h10.63v1.85h-10.63v7.63h12.36Z"/>
          <path class="cls-1" d="M372.13,260.15l-4.7-6.61c-.53.06-1.08.09-1.64.09h-5.52v6.52h-2.17v-20.55h7.69c2.62,0,4.68.63,6.16,1.88,1.49,1.25,2.23,2.97,2.23,5.17,0,1.6-.41,2.96-1.22,4.06-.81,1.11-1.97,1.9-3.48,2.39l5.02,7.04h-2.38ZM370.4,250.43c1.08-.9,1.61-2.16,1.61-3.79s-.54-2.94-1.61-3.83c-1.08-.89-2.63-1.33-4.67-1.33h-5.46v10.3h5.46c2.04,0,3.59-.45,4.67-1.35Z"/>
          <path class="cls-1" d="M401.27,251.3c.73.87,1.1,1.99,1.1,3.36,0,1.76-.65,3.12-1.95,4.06-1.3.95-3.22,1.42-5.77,1.42h-9.45v-20.55h8.87c2.29,0,4.07.46,5.33,1.38,1.26.92,1.89,2.22,1.89,3.91,0,1.14-.28,2.1-.84,2.89-.56.79-1.33,1.39-2.31,1.78,1.35.3,2.39.88,3.13,1.75ZM387.37,241.39v7.46h6.55c1.66,0,2.95-.32,3.85-.95.9-.63,1.35-1.56,1.35-2.77s-.45-2.14-1.35-2.77c-.9-.63-2.18-.95-3.85-.95h-6.55ZM398.79,257.42c.94-.63,1.41-1.6,1.41-2.94,0-2.56-1.86-3.84-5.58-3.84h-7.25v7.72h7.25c1.84,0,3.23-.31,4.17-.94Z"/>
          <path class="cls-1" d="M426.09,254.66h-11.45l-2.47,5.49h-2.26l9.39-20.55h2.14l9.39,20.55h-2.29l-2.47-5.49ZM425.3,252.9l-4.93-11.04-4.93,11.04h9.86Z"/>
          <path class="cls-1" d="M440.12,239.6h2.17v18.67h11.51v1.88h-13.68v-20.55Z"/>
        </g>
        <g>
          <path class="cls-1" d="M171.34,316.39c-1.4-.49-2.48-1.14-3.24-1.94l.85-1.67c.74.74,1.73,1.35,2.96,1.8,1.23.46,2.51.69,3.82.69,1.84,0,3.22-.34,4.14-1.01.92-.68,1.38-1.55,1.38-2.63,0-.82-.25-1.48-.75-1.97-.5-.49-1.11-.86-1.83-1.13-.72-.26-1.73-.55-3.02-.87-1.55-.39-2.78-.77-3.7-1.13-.92-.36-1.71-.91-2.36-1.66-.66-.74-.98-1.75-.98-3.02,0-1.04.27-1.98.82-2.83.55-.85,1.39-1.53,2.52-2.04,1.14-.51,2.54-.76,4.23-.76,1.17,0,2.32.16,3.45.48,1.13.32,2.1.77,2.92,1.34l-.73,1.73c-.86-.57-1.78-.99-2.76-1.28-.98-.28-1.94-.43-2.88-.43-1.8,0-3.16.35-4.07,1.04-.91.69-1.37,1.59-1.37,2.68,0,.82.25,1.48.75,1.98.5.5,1.13.88,1.88,1.15.75.26,1.77.55,3.04.86,1.51.37,2.73.74,3.65,1.1.93.36,1.72.91,2.36,1.65.65.73.97,1.73.97,2.98,0,1.04-.28,1.98-.84,2.83-.56.85-1.41,1.53-2.57,2.02-1.15.5-2.57.75-4.26.75-1.53,0-2.99-.25-4.39-.73Z"/>
          <path class="cls-1" d="M197.69,298.28h-7.22v-1.88h16.62v1.88h-7.22v18.67h-2.17v-18.67Z"/>
          <path class="cls-1" d="M230.45,316.95l-4.7-6.61c-.53.06-1.08.09-1.64.09h-5.52v6.52h-2.17v-20.55h7.69c2.62,0,4.68.63,6.16,1.88,1.49,1.25,2.23,2.97,2.23,5.17,0,1.6-.41,2.96-1.22,4.06-.81,1.11-1.97,1.9-3.48,2.39l5.02,7.04h-2.38ZM228.72,307.23c1.08-.9,1.61-2.16,1.61-3.79s-.54-2.94-1.61-3.83c-1.08-.89-2.63-1.33-4.67-1.33h-5.46v10.3h5.46c2.04,0,3.59-.45,4.67-1.35Z"/>
          <path class="cls-1" d="M256.41,311.46h-11.45l-2.47,5.49h-2.26l9.39-20.55h2.14l9.39,20.55h-2.29l-2.47-5.49ZM255.61,309.7l-4.93-11.04-4.93,11.04h9.86Z"/>
          <path class="cls-1" d="M273.4,298.28h-7.22v-1.88h16.62v1.88h-7.22v18.67h-2.17v-18.67Z"/>
          <path class="cls-1" d="M306.67,315.07v1.88h-14.53v-20.55h14.09v1.88h-11.92v7.31h10.63v1.85h-10.63v7.63h12.36Z"/>
          <path class="cls-1" d="M332,306.67h2.08v7.84c-.96.84-2.09,1.49-3.41,1.94-1.31.45-2.69.67-4.14.67-2.05,0-3.9-.45-5.55-1.35-1.64-.9-2.94-2.15-3.87-3.74-.94-1.6-1.41-3.38-1.41-5.36s.47-3.76,1.41-5.36c.94-1.6,2.23-2.85,3.87-3.74,1.64-.9,3.5-1.35,5.58-1.35,1.57,0,3,.25,4.32.75,1.31.5,2.42,1.24,3.32,2.22l-1.35,1.38c-1.62-1.6-3.69-2.41-6.19-2.41-1.66,0-3.17.37-4.51,1.1-1.34.73-2.39,1.75-3.16,3.05-.76,1.3-1.15,2.76-1.15,4.36s.38,3.05,1.15,4.34c.76,1.29,1.81,2.31,3.14,3.05,1.33.74,2.83,1.12,4.49,1.12,2.11,0,3.9-.53,5.37-1.59v-6.93Z"/>
          <path class="cls-1" d="M346.09,296.4h2.17v20.55h-2.17v-20.55Z"/>
          <path class="cls-1" d="M362.11,316.39c-1.4-.49-2.48-1.14-3.24-1.94l.85-1.67c.74.74,1.73,1.35,2.96,1.8,1.23.46,2.51.69,3.82.69,1.84,0,3.22-.34,4.14-1.01.92-.68,1.38-1.55,1.38-2.63,0-.82-.25-1.48-.75-1.97-.5-.49-1.11-.86-1.83-1.13-.72-.26-1.73-.55-3.02-.87-1.55-.39-2.78-.77-3.7-1.13-.92-.36-1.71-.91-2.36-1.66-.66-.74-.98-1.75-.98-3.02,0-1.04.27-1.98.82-2.83.55-.85,1.39-1.53,2.52-2.04,1.14-.51,2.54-.76,4.23-.76,1.17,0,2.32.16,3.45.48,1.13.32,2.1.77,2.92,1.34l-.73,1.73c-.86-.57-1.78-.99-2.76-1.28-.98-.28-1.94-.43-2.88-.43-1.8,0-3.16.35-4.07,1.04-.91.69-1.37,1.59-1.37,2.68,0,.82.25,1.48.75,1.98.5.5,1.13.88,1.88,1.15.75.26,1.77.55,3.04.86,1.51.37,2.73.74,3.65,1.1.93.36,1.72.91,2.36,1.65.65.73.97,1.73.97,2.98,0,1.04-.28,1.98-.84,2.83-.56.85-1.41,1.53-2.57,2.02-1.15.5-2.57.75-4.26.75-1.53,0-2.99-.25-4.39-.73Z"/>
          <path class="cls-1" d="M388.45,298.28h-7.22v-1.88h16.62v1.88h-7.22v18.67h-2.17v-18.67Z"/>
        </g>
      </g>
    </g>
  </g>
</svg>