<?xml version="1.0" encoding="UTF-8"?>
<svg id="Layer_2" data-name="Layer 2" xmlns="http://www.w3.org/2000/svg" viewBox="0 0 566.86 100.36">
  <defs>
    <style>
      .cls-1 {
        fill: #a173ea;
      }
    </style>
  </defs>
  <g id="Layer_1-2" data-name="Layer 1">
    <g>
      <g>
        <path class="cls-1" d="M8.11,44.21v.41H0v-.41h.34c0-.09.02-.16.07-.2.04-.04.07-.09.07-.13.18-.63.29-1.22.34-1.76.23-1.71.34-4.01.34-6.9V10.41c0-3.06-.11-5.45-.34-7.16-.05-.54-.16-1.06-.34-1.56l-.13-.27h-.34v-.41h8.11v.41h-.34l-.14.27c-.18.5-.29,1.01-.34,1.56-.23,1.71-.34,4.1-.34,7.16v24.81c0,2.89.11,5.18.34,6.9.04.68.16,1.26.34,1.76,0,.04.04.16.14.34h.34Z"/>
        <path class="cls-1" d="M21.57,1.42v-.41h8.05v.41h-.34l-.14.27c-.45,1.08-.68,3.99-.68,8.72v32.79h8.45c6.8,0,10.39-.61,10.75-1.83l.95.07c0,.23-.03.55-.1.98-.07.43-.15.86-.24,1.28-.09.43-.13.69-.13.78v.13h-26.57v-.41h.27l.14-.27c.18-.41.29-.9.34-1.49.22-1.8.34-4.21.34-7.23V10.41c0-3.02-.11-5.43-.34-7.23-.05-.58-.16-1.08-.34-1.49l-.14-.27h-.27Z"/>
        <path class="cls-1" d="M78.42,44.96c-6.76,0-12.12-2.05-16.09-6.15-3.92-4.15-5.88-9.49-5.88-16.02s1.96-11.85,5.88-15.96c3.97-4.1,9.33-6.15,16.09-6.15s12.03,2.05,15.95,6.15c3.97,4.1,5.95,9.42,5.95,15.96s-1.98,11.92-5.95,16.02c-3.92,4.1-9.24,6.15-15.95,6.15ZM94.04,22.78c0-3.38-.52-6.63-1.55-9.74-1.04-3.06-2.75-5.63-5.14-7.71-2.43-2.16-5.41-3.25-8.92-3.25s-6.51,1.08-8.99,3.25c-4.46,3.92-6.69,9.74-6.69,17.44,0,2.52.3,4.97.91,7.33.61,2.37,1.51,4.57,2.7,6.62,1.19,2.05,2.83,3.7,4.9,4.94,2.07,1.24,4.46,1.86,7.17,1.86s5.09-.62,7.17-1.86c2.07-1.24,3.71-2.88,4.9-4.94,1.19-2.05,2.08-4.26,2.67-6.62.59-2.37.88-4.81.88-7.33Z"/>
        <path class="cls-1" d="M109.65,44.62v-.41l.34-.07c.54-.85.81-3.83.81-8.92V10.41c0-3.02-.11-5.38-.34-7.1-.14-.99-.29-1.62-.47-1.89h-.34v-.41h6.08l24.88,34.55V10.41c0-3.02-.11-5.38-.34-7.1-.14-.9-.23-1.4-.27-1.49l-.2-.41h-.27v-.41h4.66v.41l-.34.07s-.07.04-.07.13-.02.16-.07.2c-.18.59-.29,1.08-.34,1.49-.18,1.4-.27,3.76-.27,7.1v35.29h-2.03l-.07-.13L113.17,7.03v28.19c0,2.57.11,4.94.34,7.1.14.9.23,1.4.27,1.49l.2.4h.34v.41h-4.66Z"/>
        <path class="cls-1" d="M156.03,36.3L168.61,0h2.03l14.6,37.52c1.22,3.15,2.21,5.23,2.97,6.22l.2.27.2.2.27.07v.34h-8.72v-.34l.41-.14s.07-.04.07-.14v-.34c0-.77-.23-1.89-.68-3.38-.45-1.49-1.01-3.18-1.69-5.07-.05-.13-.34-.88-.88-2.23-.45-1.08-.79-2.01-1.01-2.77h-15.89c-1.17,3.6-2.01,6.42-2.5,8.45-.72,2.48-1.08,4.17-1.08,5.07v.27c0,.09.02.16.07.2l.34.07v.34h-5.21v-.34l.27-.07c.09-.09.14-.16.14-.2l.13-.13.14-.07c.9-1.22,1.98-3.72,3.24-7.51ZM175.84,28.8l-7.77-20.82-7.1,20.82h14.87Z"/>
        <path class="cls-1" d="M217.69,36.3L230.26,0h2.03l14.6,37.52c1.22,3.15,2.21,5.23,2.97,6.22l.2.27.2.2.27.07v.34h-8.72v-.34l.41-.14s.07-.04.07-.14v-.34c0-.77-.23-1.89-.68-3.38-.45-1.49-1.01-3.18-1.69-5.07-.05-.13-.34-.88-.88-2.23-.45-1.08-.79-2.01-1.01-2.77h-15.89c-1.17,3.6-2.01,6.42-2.5,8.45-.72,2.48-1.08,4.17-1.08,5.07v.27c0,.09.02.16.07.2l.34.07v.34h-5.21v-.34l.27-.07c.09-.09.14-.16.14-.2l.13-.13.14-.07c.9-1.22,1.98-3.72,3.24-7.51ZM237.49,28.8l-7.77-20.82-7.1,20.82h14.87Z"/>
        <path class="cls-1" d="M258.32,1.42v-.41h15.21c3.83,0,7.12.9,9.87,2.71,2.79,1.85,4.19,4.55,4.19,8.11,0,1.85-.54,3.72-1.62,5.61-1.44,2.48-4.19,4.24-8.25,5.27,2.75.41,5.09,1.06,7.03,1.96,1.94.9,3.32,1.92,4.16,3.04.83,1.13,1.42,2.13,1.76,3.01.34.88.51,1.75.51,2.6,0,2.66-.88,4.89-2.64,6.69-3.07,3.07-7.5,4.6-13.32,4.6h-16.9v-.41h.27c.09-.09.14-.16.14-.2.5-1.22.74-4.14.74-8.79V10.41c0-4.64-.25-7.57-.74-8.79,0-.04-.05-.11-.14-.2h-.27ZM273.53,2.57h-8.32v19.81h6.56c3.02,0,5.45-.99,7.3-2.98,1.85-1.98,2.77-4.51,2.77-7.57,0-2.66-.76-4.87-2.26-6.62-1.51-1.76-3.53-2.64-6.05-2.64ZM270.96,23.66h-5.75v19.4h9.4c3.06,0,5.59-.89,7.57-2.67,1.98-1.78,2.97-4.14,2.97-7.06,0-2.21-.79-4.1-2.37-5.68-2.8-2.66-6.74-3.99-11.83-3.99Z"/>
        <path class="cls-1" d="M300.7,1.42v-.41h15.21c4.01,0,7.39,1.04,10.14,3.11,2.79,2.03,4.19,5,4.19,8.92,0,1.89-.59,3.92-1.76,6.08-.68,1.26-1.79,2.4-3.35,3.41-1.55,1.01-3.41,1.77-5.58,2.26l12.1,13.72,1.42,1.62.27.27c.13.23.31.46.54.71.22.25.43.46.61.64,1.13,1.04,2.23,1.55,3.31,1.55h.54v1.28h-2.5c-2.43,0-4.33-.25-5.68-.74-1.31-.5-2.7-1.64-4.19-3.45l-2.57-2.84-10.75-12.24h-5.07v9.87c0,3.25.09,5.57.27,6.96.04.63.16,1.15.34,1.55,0,.18.07.34.2.47h.27v.41h-7.98v-.41h.27c.14-.13.2-.29.2-.47.45-1.08.68-3.92.68-8.52V10.41c0-4.6-.23-7.44-.68-8.52,0-.18-.02-.29-.07-.34l-.14-.14h-.27ZM315.92,2.57h-8.32v21.23h6.56c2.97,0,5.4-1,7.27-3.01,1.87-2.01,2.81-4.59,2.81-7.74,0-2.79-.72-5.25-2.16-7.37-1.4-2.07-3.45-3.11-6.15-3.11Z"/>
        <path class="cls-1" d="M346.41,36.3L358.98,0h2.03l14.6,37.52c1.22,3.15,2.21,5.23,2.97,6.22l.2.27.2.2.27.07v.34h-8.72v-.34l.41-.14s.07-.04.07-.14v-.34c0-.77-.23-1.89-.68-3.38-.45-1.49-1.01-3.18-1.69-5.07-.05-.13-.34-.88-.88-2.23-.45-1.08-.79-2.01-1.01-2.77h-15.89c-1.17,3.6-2.01,6.42-2.5,8.45-.72,2.48-1.08,4.17-1.08,5.07v.27c0,.09.02.16.07.2l.34.07v.34h-5.21v-.34l.27-.07c.09-.09.14-.16.14-.2l.13-.13.14-.07c.9-1.22,1.98-3.72,3.24-7.51ZM366.21,28.8l-7.77-20.82-7.1,20.82h14.87Z"/>
        <path class="cls-1" d="M431.93,44.21h.34v.41h-7.98v-.41h.27c.36-.5.54-2.39.54-5.68,0-1.71-.02-2.82-.07-3.31l-.95-27.72-15.08,37.45h-2.03l-15.68-35.36-.95,24.67c-.05.41-.07,1.35-.07,2.84,0,2.57.14,4.51.41,5.82.09.5.22.88.41,1.15.04.04.07.09.07.13h.47v.41h-5.21v-.41h.34s.07-.11.07-.2c.04-.04.07-.09.07-.13.18-.41.31-.99.41-1.76.23-1.13.43-3.42.61-6.9.68-17.67,1.01-26.61,1.01-26.84v-1.35c0-1.98-.07-3.47-.2-4.46,0-.22-.07-.54-.2-.95l-.07-.07-.07-.14h-.27v-.41h5.07l16.43,36.78,14.26-36.78h6.42v.41h-.34l-.13.27c-.27.77-.41,2.37-.41,4.8v1.35l1.28,27.38c.18,4.91.58,7.91,1.22,8.99Z"/>
        <path class="cls-1" d="M457.01.68c2.75,0,6.63.99,11.63,2.97.23.09.38.2.47.34v3.45h-.95c-.36-.72-.95-1.42-1.76-2.1-.9-.77-2.52-1.53-4.87-2.3-1.98-.63-3.58-.95-4.8-.95-2.66,0-4.85.86-6.56,2.57-1.71,1.71-2.57,3.92-2.57,6.62,0,1.76,1.04,3.49,3.11,5.21,2.07,1.71,5,3.16,8.79,4.33,4.06,1.31,7.07,3.08,9.06,5.31,1.98,2.23,2.97,4.54,2.97,6.93,0,3.79-1.33,6.74-3.99,8.86-2.61,2.03-5.86,3.04-9.73,3.04-4.6,0-9.4-.99-14.4-2.98-.32-.13-.47-.25-.47-.34-.09-.09-.11-.29-.07-.61l.07-.54v-2.3h.95c.63,1.31,1.53,2.23,2.7,2.77,2.88,1.49,6.22,2.32,10.01,2.5l.27.07h.2c2.98,0,5.4-.73,7.27-2.2,1.87-1.46,2.81-3.55,2.81-6.25,0-1.94-1.04-3.82-3.11-5.65-2.07-1.82-5.07-3.37-8.99-4.63-3.92-1.26-6.85-2.94-8.79-5.04-1.94-2.1-2.91-4.27-2.91-6.52,0-3.97,1.28-7.05,3.85-9.26,2.52-2.21,5.79-3.31,9.8-3.31Z"/>
        <path class="cls-1" d="M501.08,44.96c-6.76,0-12.12-2.05-16.09-6.15-3.92-4.15-5.88-9.49-5.88-16.02s1.96-11.85,5.88-15.96c3.97-4.1,9.33-6.15,16.09-6.15s12.03,2.05,15.95,6.15c3.97,4.1,5.95,9.42,5.95,15.96s-1.98,11.92-5.95,16.02c-3.92,4.1-9.24,6.15-15.95,6.15ZM516.7,22.78c0-3.38-.52-6.63-1.55-9.74-1.04-3.06-2.75-5.63-5.14-7.71-2.43-2.16-5.41-3.25-8.92-3.25s-6.51,1.08-8.99,3.25c-4.46,3.92-6.69,9.74-6.69,17.44,0,2.52.3,4.97.91,7.33.61,2.37,1.51,4.57,2.7,6.62,1.19,2.05,2.83,3.7,4.9,4.94,2.07,1.24,4.46,1.86,7.17,1.86s5.09-.62,7.17-1.86c2.07-1.24,3.71-2.88,4.9-4.94,1.19-2.05,2.08-4.26,2.67-6.62.59-2.37.88-4.81.88-7.33Z"/>
        <path class="cls-1" d="M532.32,44.62v-.41l.34-.07c.54-.85.81-3.83.81-8.92V10.41c0-3.02-.11-5.38-.34-7.1-.14-.99-.29-1.62-.47-1.89h-.34v-.41h6.08l24.88,34.55V10.41c0-3.02-.11-5.38-.34-7.1-.14-.9-.23-1.4-.27-1.49l-.2-.41h-.27v-.41h4.66v.41l-.34.07s-.07.04-.07.13-.02.16-.07.2c-.18.59-.29,1.08-.34,1.49-.18,1.4-.27,3.76-.27,7.1v35.29h-2.03l-.07-.13-27.85-38.54v28.19c0,2.57.11,4.94.34,7.1.14.9.23,1.4.27,1.49l.2.4h.34v.41h-4.66Z"/>
      </g>
      <g>
        <path class="cls-1" d="M82.48,93.78c.53.62.79,1.43.79,2.41,0,1.26-.47,2.24-1.4,2.92-.93.68-2.31,1.02-4.14,1.02h-6.78v-14.74h6.36c1.64,0,2.92.33,3.82.99.91.66,1.36,1.59,1.36,2.8,0,.81-.2,1.5-.6,2.07-.4.57-.95.99-1.65,1.27.97.21,1.72.63,2.24,1.25ZM72.51,86.68v5.35h4.7c1.19,0,2.11-.23,2.76-.68.65-.46.97-1.12.97-1.99s-.32-1.53-.97-1.99c-.65-.46-1.57-.68-2.76-.68h-4.7ZM80.7,98.17c.67-.45,1.01-1.15,1.01-2.11,0-1.84-1.33-2.76-4-2.76h-5.2v5.54h5.2c1.32,0,2.32-.22,2.99-.67Z"/>
        <path class="cls-1" d="M101.11,100.13l-3.37-4.74c-.38.04-.77.06-1.18.06h-3.96v4.67h-1.56v-14.74h5.52c1.88,0,3.35.45,4.42,1.35,1.07.9,1.6,2.13,1.6,3.7,0,1.15-.29,2.12-.87,2.92-.58.79-1.41,1.37-2.5,1.72l3.6,5.05h-1.71ZM99.86,93.16c.77-.65,1.16-1.55,1.16-2.72s-.39-2.11-1.16-2.75c-.77-.64-1.89-.96-3.35-.96h-3.92v7.39h3.92c1.46,0,2.58-.32,3.35-.97Z"/>
        <path class="cls-1" d="M119.72,96.19h-8.21l-1.77,3.94h-1.62l6.74-14.74h1.54l6.74,14.74h-1.64l-1.77-3.94ZM119.15,94.93l-3.54-7.92-3.54,7.92h7.07Z"/>
        <path class="cls-1" d="M142.1,85.39v14.74h-1.28l-9.47-11.96v11.96h-1.56v-14.74h1.28l9.5,11.96v-11.96h1.54Z"/>
        <path class="cls-1" d="M151.12,85.39h6c1.56,0,2.93.31,4.13.94,1.19.63,2.12,1.5,2.78,2.61s.99,2.39.99,3.82-.33,2.71-.99,3.82c-.66,1.12-1.59,1.99-2.78,2.61-1.19.62-2.57.94-4.13.94h-6v-14.74ZM157.03,98.78c1.29,0,2.42-.26,3.39-.77.97-.51,1.72-1.22,2.25-2.13.53-.91.8-1.95.8-3.13s-.27-2.22-.8-3.13c-.53-.9-1.28-1.61-2.25-2.13-.97-.51-2.1-.77-3.39-.77h-4.36v12.04h4.36Z"/>
        <path class="cls-1" d="M193,100.36l-2.04-2.11c-1.25,1.33-2.89,2-4.93,2-.95,0-1.81-.16-2.56-.48-.75-.31-1.34-.76-1.76-1.32s-.63-1.22-.63-1.95c0-.89.28-1.68.84-2.38.56-.7,1.52-1.44,2.86-2.21-.7-.73-1.19-1.35-1.45-1.86-.27-.51-.4-1.06-.4-1.63,0-.94.34-1.7,1.01-2.28.67-.58,1.58-.86,2.72-.86,1.05,0,1.89.26,2.51.78.62.52.93,1.24.93,2.15,0,.73-.25,1.39-.74,1.97-.49.58-1.34,1.22-2.55,1.93l4.04,4.17c.45-.8.78-1.75.99-2.84l1.22.38c-.27,1.32-.7,2.45-1.31,3.39l2.11,2.17-.86.99ZM190.07,97.35l-4.44-4.57c-1.17.66-1.97,1.26-2.41,1.79-.44.53-.66,1.13-.66,1.79,0,.8.33,1.44.98,1.92.65.48,1.51.73,2.58.73,1.63,0,2.95-.56,3.96-1.66ZM184.94,86.95c-.41.37-.62.85-.62,1.45,0,.43.11.85.34,1.24s.67.93,1.33,1.6c1.07-.62,1.8-1.14,2.21-1.58.41-.43.61-.91.61-1.43,0-.56-.19-1.01-.57-1.34-.38-.33-.91-.5-1.58-.5-.73,0-1.3.18-1.72.55Z"/>
        <path class="cls-1" d="M222.73,85.39l-6.53,14.74h-1.54l-6.53-14.74h1.68l5.64,12.8,5.69-12.8h1.58Z"/>
        <path class="cls-1" d="M239.49,98.78v1.35h-10.42v-14.74h10.11v1.35h-8.55v5.24h7.62v1.33h-7.62v5.47h8.86Z"/>
        <path class="cls-1" d="M257.43,100.13l-3.37-4.74c-.38.04-.77.06-1.18.06h-3.96v4.67h-1.56v-14.74h5.52c1.88,0,3.35.45,4.42,1.35,1.07.9,1.6,2.13,1.6,3.7,0,1.15-.29,2.12-.87,2.92-.58.79-1.41,1.37-2.5,1.72l3.6,5.05h-1.71ZM256.19,93.16c.77-.65,1.16-1.55,1.16-2.72s-.39-2.11-1.16-2.75c-.77-.64-1.89-.96-3.35-.96h-3.92v7.39h3.92c1.46,0,2.58-.32,3.35-.97Z"/>
        <path class="cls-1" d="M278.33,93.78c.53.62.79,1.43.79,2.41,0,1.26-.47,2.24-1.4,2.92-.93.68-2.31,1.02-4.14,1.02h-6.78v-14.74h6.36c1.64,0,2.92.33,3.82.99.91.66,1.36,1.59,1.36,2.8,0,.81-.2,1.5-.6,2.07-.4.57-.95.99-1.65,1.27.97.21,1.72.63,2.24,1.25ZM268.36,86.68v5.35h4.7c1.19,0,2.11-.23,2.76-.68.65-.46.97-1.12.97-1.99s-.32-1.53-.97-1.99c-.65-.46-1.57-.68-2.76-.68h-4.7ZM276.55,98.17c.67-.45,1.01-1.15,1.01-2.11,0-1.84-1.33-2.76-4-2.76h-5.2v5.54h5.2c1.32,0,2.32-.22,2.99-.67Z"/>
        <path class="cls-1" d="M296.13,96.19h-8.21l-1.77,3.94h-1.62l6.74-14.74h1.54l6.74,14.74h-1.64l-1.77-3.94ZM295.56,94.93l-3.54-7.92-3.54,7.92h7.07Z"/>
        <path class="cls-1" d="M306.19,85.39h1.56v13.39h8.25v1.35h-9.81v-14.74Z"/>
        <path class="cls-1" d="M333.45,99.73c-1-.35-1.78-.81-2.33-1.39l.61-1.2c.53.53,1.24.97,2.13,1.29.88.33,1.8.5,2.74.5,1.32,0,2.31-.24,2.97-.72.66-.49.99-1.11.99-1.88,0-.59-.18-1.06-.54-1.41-.36-.35-.8-.62-1.32-.81-.52-.19-1.24-.4-2.17-.62-1.11-.28-1.99-.55-2.65-.81-.66-.26-1.22-.66-1.69-1.19-.47-.53-.71-1.26-.71-2.17,0-.74.2-1.42.59-2.03.39-.61,1-1.1,1.81-1.46.81-.36,1.82-.55,3.03-.55.84,0,1.67.12,2.47.35.81.23,1.51.55,2.1.96l-.53,1.24c-.62-.41-1.28-.71-1.98-.92-.7-.2-1.39-.31-2.06-.31-1.29,0-2.26.25-2.92.75-.65.5-.98,1.14-.98,1.92,0,.59.18,1.06.54,1.42.36.36.81.63,1.35.82.54.19,1.27.4,2.18.62,1.08.27,1.95.53,2.62.79.67.26,1.23.65,1.69,1.18.46.53.69,1.24.69,2.14,0,.75-.2,1.42-.6,2.03-.4.61-1.01,1.1-1.84,1.45-.83.36-1.85.54-3.05.54-1.09,0-2.14-.18-3.15-.53Z"/>
        <path class="cls-1" d="M352.35,86.74h-5.18v-1.35h11.92v1.35h-5.18v13.39h-1.56v-13.39Z"/>
        <path class="cls-1" d="M375.85,100.13l-3.37-4.74c-.38.04-.77.06-1.18.06h-3.96v4.67h-1.56v-14.74h5.52c1.88,0,3.35.45,4.42,1.35,1.07.9,1.6,2.13,1.6,3.7,0,1.15-.29,2.12-.87,2.92-.58.79-1.41,1.37-2.5,1.72l3.6,5.05h-1.71ZM374.61,93.16c.77-.65,1.16-1.55,1.16-2.72s-.39-2.11-1.16-2.75c-.77-.64-1.89-.96-3.35-.96h-3.92v7.39h3.92c1.46,0,2.58-.32,3.35-.97Z"/>
        <path class="cls-1" d="M394.46,96.19h-8.21l-1.77,3.94h-1.62l6.74-14.74h1.54l6.74,14.74h-1.64l-1.77-3.94ZM393.89,94.93l-3.54-7.92-3.54,7.92h7.07Z"/>
        <path class="cls-1" d="M406.65,86.74h-5.18v-1.35h11.92v1.35h-5.18v13.39h-1.56v-13.39Z"/>
        <path class="cls-1" d="M430.51,98.78v1.35h-10.42v-14.74h10.11v1.35h-8.55v5.24h7.62v1.33h-7.62v5.47h8.86Z"/>
        <path class="cls-1" d="M448.68,92.76h1.5v5.62c-.69.6-1.5,1.07-2.44,1.39-.94.32-1.93.48-2.97.48-1.47,0-2.8-.32-3.98-.97-1.18-.65-2.11-1.54-2.78-2.69-.67-1.14-1.01-2.42-1.01-3.84s.34-2.7,1.01-3.84,1.6-2.04,2.78-2.69c1.18-.64,2.51-.97,4-.97,1.12,0,2.15.18,3.1.54.94.36,1.73.89,2.38,1.59l-.97.99c-1.17-1.15-2.65-1.73-4.44-1.73-1.19,0-2.27.26-3.23.79-.96.53-1.72,1.26-2.26,2.19-.55.93-.82,1.98-.82,3.13s.27,2.19.82,3.12c.55.93,1.3,1.66,2.25,2.19.95.53,2.03.8,3.22.8,1.52,0,2.8-.38,3.85-1.14v-4.97Z"/>
        <path class="cls-1" d="M458.79,85.39h1.56v14.74h-1.56v-14.74Z"/>
        <path class="cls-1" d="M470.27,99.73c-1-.35-1.78-.81-2.33-1.39l.61-1.2c.53.53,1.24.97,2.13,1.29.88.33,1.8.5,2.74.5,1.32,0,2.31-.24,2.97-.72.66-.49.99-1.11.99-1.88,0-.59-.18-1.06-.54-1.41-.36-.35-.8-.62-1.32-.81-.52-.19-1.24-.4-2.17-.62-1.11-.28-1.99-.55-2.65-.81-.66-.26-1.22-.66-1.69-1.19-.47-.53-.71-1.26-.71-2.17,0-.74.2-1.42.59-2.03.39-.61,1-1.1,1.81-1.46.81-.36,1.82-.55,3.03-.55.84,0,1.67.12,2.47.35.81.23,1.51.55,2.1.96l-.53,1.24c-.62-.41-1.28-.71-1.98-.92-.7-.2-1.39-.31-2.06-.31-1.29,0-2.26.25-2.92.75-.65.5-.98,1.14-.98,1.92,0,.59.18,1.06.54,1.42.36.36.81.63,1.35.82.54.19,1.27.4,2.18.62,1.08.27,1.95.53,2.62.79.67.26,1.23.65,1.69,1.18.46.53.69,1.24.69,2.14,0,.75-.2,1.42-.6,2.03-.4.61-1.01,1.1-1.84,1.45-.83.36-1.85.54-3.05.54-1.09,0-2.14-.18-3.15-.53Z"/>
        <path class="cls-1" d="M489.17,86.74h-5.18v-1.35h11.92v1.35h-5.18v13.39h-1.56v-13.39Z"/>
      </g>
    </g>
  </g>
</svg>