<?xml version="1.0" encoding="UTF-8"?>
<svg id="Layer_2" data-name="Layer 2" xmlns="http://www.w3.org/2000/svg" viewBox="0 0 1966.41 438.74">
  <defs>
    <style>
      .cls-1 {
        fill: #dfff5c;
      }
    </style>
  </defs>
  <g id="Layer_1-2" data-name="Layer 1">
    <path class="cls-1" d="M18.03,438.5c60.86-9.12,121.16-21.83,180.48-38.19,58.45-16.12,115.94-35.75,171.98-58.91,55.55-22.95,109.75-49.09,161.95-78.91,25.34-14.47,50.2-29.78,74.51-45.93,12.68-8.43,25.44-18.03,30.78-32.91,5.97-16.61-5.35-32.07-21.45-36.33-14.14-3.74-30.43-2.73-44.82-1.05s-29.09,4.73-43.11,9.46c-27.08,9.14-52.32,23.1-75.31,39.98-11.6,8.52-22.78,17.62-33.45,27.27s-20.93,19.23-29.69,30.3c-9.82,12.41-18.79,27.26-17.99,43.72.66,13.7,7.27,26.34,17.9,34.97,21.29,17.28,50.03,21.84,76.69,22.49,31.62.77,63.5-3.73,94-11.96,61.15-16.49,115.71-49.25,169.92-81.01,27.26-15.97,54.15-32.61,80.15-50.56,25.52-17.63,50.27-36.38,75.41-54.55,50.79-36.69,102.69-72.35,158.72-100.66,6.81-3.44,13.66-6.8,20.6-9.97,1.26-.57,2.52-1.14,3.78-1.69.64-.28,1.28-.56,1.92-.83-.28.12-1.7.7-.16.08,3.11-1.27,6.23-2.49,9.39-3.65,11.93-4.36,24.23-7.85,36.79-9.85.71-.11,1.42-.22,2.14-.33-.3.04-1.94.24-.25.04,1.41-.16,2.82-.31,4.24-.44,3.23-.28,6.48-.44,9.72-.45,2.7,0,5.4.09,8.09.31.61.05,4.05.45,2.68.25-1.64-.24.49.09.67.13,1.05.22,2.11.39,3.15.62,2.46.54,4.9,1.21,7.28,2.04.55.19,3.63,1.46,2.33.86-1.18-.54,2.07,1.08,2.7,1.43,1.25.69,2.45,1.46,3.65,2.23.51.33,1.01.69,1.51,1.05-.18-.13-1.69-1.41-.47-.34,2.1,1.83,4,3.75,5.86,5.81s.46.62.12.13c.35.51.71,1.01,1.04,1.53.63,1.02,1.22,2.05,1.82,3.1.29.51.52,1.05.78,1.57-.07-.14-.86-2.3-.33-.78.43,1.24.86,2.47,1.19,3.74.12.47.84,4.45.57,2.43s.05,1.38.07,1.93c.04,1.11.02,2.21-.03,3.31-.06,1.33-.62,4.06-.01,1.21-.53,2.45-.98,4.88-1.71,7.29-.35,1.14-.74,2.25-1.13,3.38-.2.57-.43,1.12-.64,1.69.47-1.25.61-1.32.02-.04-2.36,5.03-5.03,9.85-8.07,14.5-1.58,2.42-3.24,4.78-4.96,7.1-.4.54-.8,1.08-1.21,1.62.17-.22,1.18-1.5.17-.22s-1.97,2.48-2.97,3.7c-3.71,4.52-7.59,8.88-11.58,13.16-7.16,7.68-14.67,15.02-22.14,22.4-24.53,24.24-49.03,48.51-73.55,72.77-21.08,20.85-43.55,41.64-58.07,67.87s-17.46,56.48.26,81.44,47.71,39.5,77.32,44.2c63.73,10.13,127.5-16.93,181.34-48.66,54.4-32.05,104.18-71.37,156.93-105.96,27.54-18.06,55.36-35.81,84.69-50.84,14.1-7.22,28.53-13.63,43.27-19.42,14.54-5.71,28.3-10.08,43.8-7.05,3.26.64,6.76,1.28,9.83,2.59-.89-.38,1.98,1.14,2.42,1.45-1.34-.97,2.6,3.14,1.26,1.25.84,1.19,1.63,2.56,2.18,3.91-.65-1.6.42,1.82.54,2.3.14.57.66,4.12.49,2.22.19,2.11.19,4.24.13,6.35-.2,7.18-1.02,11.46-2.93,18.86-1.78,6.94-4.07,13.74-6.45,20.5-4.75,13.51-9.99,26.98-12.44,41.15-2.69,15.58-1.62,30.48,1.86,45.85,2.79,12.33,7.54,24.15,15.33,34.16,9.23,11.86,21.99,19.09,35.81,24.43,26.43,10.21,56.33,10.91,84.11,7.17,31.57-4.25,61.56-15.78,90.72-28.17s58.06-27.26,85.48-43.84c26.75-16.18,52.28-34.27,76.6-53.91,6.01-4.85,5.05-15.16,0-20.22-5.94-5.94-14.19-4.87-20.22,0-47.04,38-100.41,69.8-156.31,93.29-14.3,6.01-28.86,11.55-43.67,16.18-7.41,2.32-14.92,4.41-22.51,6.07-2.96.65-5.93,1.22-8.92,1.73-1.52.26-3.04.5-4.57.72-1.68.25-.4.06-.06.02-1.04.14-2.07.26-3.11.37-13.46,1.5-27.1,1.69-40.57.24-.79-.09-1.58-.17-2.37-.27.35.04,1.56.22-.12-.03-1.56-.23-3.11-.49-4.66-.77-3.32-.61-6.62-1.33-9.89-2.18-2.96-.78-5.9-1.66-8.8-2.66-1.43-.5-2.85-1.03-4.26-1.57-2.75-1.07-1.32-.56-.73-.3-.91-.41-1.81-.82-2.7-1.26-2.72-1.32-5.41-2.75-7.95-4.39s-3.04-1.98-5.8-4.72c-1-.99-1.93-2.04-2.87-3.09-1.08-1.21-.11-.05.08.2-.42-.54-.8-1.11-1.19-1.67-1.66-2.41-3.11-4.94-4.39-7.57-.33-.68-1.52-3.63-.7-1.48-.48-1.25-.94-2.5-1.37-3.77-.99-2.96-1.82-5.97-2.54-9.01-1.18-4.98-2.33-10.32-2.79-15.28-1.32-14.22,2.3-26.54,7-40.56,4.39-13.08,9.63-25.91,12.92-39.34s5.93-30.72.78-44.67c-2.99-8.09-7.59-14.92-14.66-19.98-6.5-4.65-14.54-6.86-22.32-8.23-17.3-3.05-33.64-1.14-50.12,4.77-15.61,5.6-31,12.22-45.94,19.41-58.35,28.07-111.63,66.43-164.47,103.51-47.28,33.18-96.01,68.74-149.63,89.24-27.95,10.69-57.38,18.11-87.4,16.38-25.19-1.45-52.81-10.88-69.87-30.9-1.59-1.87.94,1.35-.49-.6-.43-.59-.85-1.18-1.26-1.79-.81-1.19-1.57-2.42-2.29-3.66s-1.34-2.5-1.99-3.77c-.02-.04-.96-2.15-.42-.87.48,1.15-.47-1.33-.55-1.56-.92-2.65-1.57-5.35-2.14-8.09-.34-1.65-.05.04,0,.34-.09-.7-.14-1.4-.2-2.1-.13-1.65-.18-3.31-.16-4.96.02-1.44.12-2.88.23-4.32.19-2.51-.25.46.32-2.04.8-3.54,1.71-6.96,2.93-10.38,1.55-4.36,5.44-11.28,8.65-16.39,14.64-23.27,36.84-42.85,56.87-62.66,23.18-22.93,46.32-45.9,69.54-68.79,16.06-15.83,32.13-32.05,44.45-51.07s20.28-43.51,10.19-65.92S1163.27,1.64,1138.95.2c-24.78-1.47-50.24,5.35-73.07,14.45-27.81,11.08-54.38,25.61-80.13,40.78-52.27,30.79-101.25,66.71-150.19,102.45-24.91,18.19-49.96,36.03-76.04,52.5s-52.68,31.89-79.46,47.07c-25.84,14.64-52.42,30.14-79.39,41.2-27.66,11.34-56.55,19.89-86.14,24.36-13.42,2.02-29.12,3.05-43.53,2.93-6.83-.06-13.68-.3-20.48-1.01-.72-.07-3.95-.47-3.14-.35s-2.42-.39-3.14-.52c-3.11-.53-6.19-1.16-9.26-1.91s-5.99-1.58-8.93-2.56c-1.33-.44-2.65-.91-3.96-1.41-.65-.25-1.29-.49-1.93-.76,1.39.58.52.23-.34-.19-2.38-1.17-4.73-2.34-6.99-3.73-1.09-.67-2.13-1.4-3.2-2.1-.16-.1-1.79-1.38-.55-.38s-.73-.66-.93-.85c-.89-.82-1.77-1.64-2.6-2.52-.39-.41-2.46-2.95-1.56-1.72s-.9-1.48-1.17-1.94c-.55-.94-1.8-3.91-.84-1.31-.5-1.37-.9-2.75-1.27-4.15-.77-2.91-.23-1.46-.17-.76-.06-.76-.07-1.52-.07-2.28s.03-1.51.07-2.27c-.02.31-.31,1.76-.02.03s.85-3.5,1.34-5.24,1.71-4.18,3.24-6.84c1.65-2.87,3.75-6.03,5.61-8.42,4.02-5.18,9.17-10.45,14.02-15.26,9.38-9.29,19.14-18.2,29.33-26.6,19.43-16.03,42.94-31.35,67.33-42.05,22.97-10.08,49.82-15.84,75.61-15.09,1.68.05,3.36.12,5.04.22.49.03,4.08.3,2.7.13,1.6.2,3.16.61,4.71,1.01-.1-.02,2.31.8,1.19.36-1.25-.48,1.92,1.26.7.41-.95-.67.6.64.65.72-.33-.59-.72-.89-1-1.53-.69-1.57-.04.19.06.45-.04-.09-.4-2.67-.27-.97.11,1.57.01-.63.12-.88-.33.74-.43,1.62-.74,2.38.93-2.3-.98,1.29-1.41,1.97-.81,1.3-.13.34.08.05-.45.6-.97,1.17-1.46,1.73-1.02,1.16-2.09,2.27-3.2,3.34-2.76,2.66-3.57,3.28-6.09,5.01-5.75,3.94-11.61,7.73-17.46,11.53-48.17,31.24-98.45,59.22-150.24,84.01-52.55,25.16-105.79,46.57-161.31,65.19-56.59,18.98-114.32,34.56-172.76,46.72-28.47,5.92-57.11,11.02-85.88,15.33-7.64,1.14-11.85,10.78-9.98,17.58,2.25,8.18,9.92,11.13,17.58,9.98h0Z"/>
  </g>
</svg>