<?xml version="1.0" encoding="UTF-8"?>
<svg id="Layer_2" data-name="Layer 2" xmlns="http://www.w3.org/2000/svg" viewBox="0 0 216.67 216.67">
  <g id="Layer_1-2" data-name="Layer 1">
    <g>
      <path d="M53.03,216.67h110.61c29.24,0,53.03-23.79,53.03-53.03V53.03c0-29.24-23.79-53.03-53.03-53.03H53.03C23.79,0,0,23.79,0,53.03v110.61c0,29.24,23.79,53.03,53.03,53.03ZM8.44,53.03c0-24.59,20-44.59,44.59-44.59h110.61c24.59,0,44.59,20,44.59,44.59v110.61c0,24.59-20,44.59-44.59,44.59H53.03c-24.59,0-44.59-20-44.59-44.59V53.03Z"/>
      <path d="M108.33,162.58c29.91,0,54.25-24.34,54.25-54.25s-24.34-54.25-54.25-54.25-54.25,24.34-54.25,54.25,24.34,54.25,54.25,54.25ZM108.33,62.53c25.26,0,45.81,20.55,45.81,45.81s-20.55,45.81-45.81,45.81-45.81-20.55-45.81-45.81,20.55-45.81,45.81-45.81Z"/>
      <circle cx="172.59" cy="44.07" r="10.41" transform="translate(-3.2 15.33) rotate(-5.04)"/>
    </g>
  </g>
</svg>