<?xml version="1.0" encoding="UTF-8"?>
<svg id="Layer_2" data-name="Layer 2" xmlns="http://www.w3.org/2000/svg" viewBox="0 0 226.21 227.96">
  <g id="Layer_1-2" data-name="Layer 1">
    <g>
      <path d="M6.34,227.96l54.4-14.58c16.06,8.4,34.13,12.83,52.36,12.83,62.37,0,113.1-50.74,113.1-113.1S175.47,0,113.1,0,0,50.74,0,113.1c0,23.05,6.89,45.17,19.94,64.09l-13.6,50.76ZM8.44,113.1C8.44,55.39,55.39,8.44,113.1,8.44s104.66,46.95,104.66,104.66-46.95,104.66-104.66,104.66c-17.41,0-34.64-4.36-49.84-12.6l-1.48-.8-43.51,11.66,10.85-40.47-1.16-1.62c-12.77-17.84-19.52-38.87-19.52-60.82Z"/>
      <path d="M142.29,129.54c-1.97,2.95-7.72,9.65-9.45,11.63-1.75,1.95-3.49,2.1-6.47.75-3-1.5-12.65-4.66-24.06-14.87-8.89-7.96-14.86-17.72-16.62-20.72-2.93-5.07,3.2-5.79,8.79-16.36,1-2.1.49-3.75-.25-5.25-.75-1.5-6.73-16.22-9.23-22.09-2.4-5.85-4.88-5.11-6.73-5.11-5.77-.5-9.98-.42-13.7,3.44-16.16,17.76-12.08,36.08,1.74,55.57,27.17,35.56,41.65,42.11,68.12,51.2,7.15,2.27,13.67,1.95,18.82,1.21,5.75-.91,17.69-7.22,20.18-14.28,2.55-7.06,2.55-12.92,1.8-14.27-.74-1.35-30.12-15.14-32.96-10.87Z"/>
    </g>
  </g>
</svg>